<svg xmlns="http://www.w3.org/2000/svg" viewBox="0 0 643.89 541.2"><defs><radialGradient id="c" cx="530.11" cy="224.66" fx="562.686" r="59.44" gradientTransform="matrix(.75 -.66 .85 .98 -61.44 352.29)" gradientUnits="userSpaceOnUse"><stop offset=".59" stop-color="#dd7a43"/><stop offset=".88" stop-color="#dd7a43" stop-opacity="0"/></radialGradient><radialGradient id="d" cx="501.18" cy="186.58" fx="536.805" r="58.77" gradientTransform="matrix(.89 -.45 .57 1.13 -52.98 200.03)" gradientUnits="userSpaceOnUse"><stop offset=".6" stop-color="#dd7a43"/><stop offset=".91" stop-color="#dd7a43" stop-opacity="0"/></radialGradient><linearGradient id="b" x1="521.59" y1="199.15" x2="471.74" y2="236.17" gradientUnits="userSpaceOnUse"><stop offset=".07" stop-color="#dd7a43"/><stop offset=".9" stop-color="#dd7a43" stop-opacity="0"/></linearGradient><clipPath id="a"><path d="M498 220.51s-13.87-16.94 12.42-55.89c30.89-45.77 105.91-63 105.91-63l27.59 38.23s-45.1 75.65-98.45 86.33c-42.82 8.54-47.47-5.67-47.47-5.67z" fill="none"/></clipPath></defs><g clip-path="url(#a)"><path d="M634 232.28c-3.58 18.48-57.19 17.39-62.8 28.38s14.56 34.32 5 38.83-41.52-10.66-50.73-8.63-23.08 25.65-31.83 22.88-.9-35.41-7.28-41.89-37.62 16.35-42 9.45 7.92-18.5 3.78-24.73c-4.25-6.4-40.25-2.47-44-17.74s30.78-29.32 33.26-46.17-22.11-37.35-16.52-49.86 29.09 1.82 34.62-3.63-.25-43.14 11.15-47c15.83-5.38 28.69 25.7 44.64 28s53.08-24.63 66-15.32-5.25 27.78 2.92 37 46 3.07 50.13 15.1-19.18 30.05-17.91 43.44 24.43 16.83 21.57 31.89z" fill="#de4298"/><path d="M617.77 228.83c-3 11.35-47.91 1.52-56.8 17.17-4 7.08 15.61 28.27 4.08 40.89-5.14 5.61-28.1-10.9-37.57-4.69s-27.85 25.56-32.75 7.93 7.93-50.86-4.06-44.66-41.07 28-38.47 16.68 14-22.52-4.87-20.78-29.93-1.55-27.54-14.67c1.51-8.31 42.86-33.16 45.95-43.43 3.59-11.92-38.36-23.69-24.81-32 6.09-3.73 28.36 12.66 26.62-6.38s-2.21-40.8 15.33-32.93 23.73 28.42 36.23 28.51c11.32.09 42.18-30.77 51.61-23.89 12.1 8.84-9.28 46.25-.36 47.36s37.9-8.18 44 4.13c4.61 9.36-15.41 19.55-15.49 29.52-.09 7.69 22.93 16.18 18.9 31.24z" fill="#dd7a43"/><path d="M545.41 227.47c9.11-3.28 52.32 5 49.18-8.3-4.45-18.83-28.41-18.17-44.32-34.17-8.78-8.87 16.44-41.43 4.62-45.8s-21.5 25.79-33.34 24.43-34.68-27.65-43.48-18.6c-8.07 8.31 16.25 32 6.7 48.06-8.75 14.67-38.31 23.09-38.42 34.25-.11 12.69 45.44-1.69 55.48 8.21 5.47 5.39 7.48 39 18.89 38 17.28-1.61 9.6-40.65 24.69-46.08z" fill="#afcb36"/></g><path d="M240.21 483.64c60.48-36.27 129.18-92.95 222.72-184.4-3.68-1.12-5.83-1.91-5.94-2l-.74-.28.32-.72c4.89-11.12 13.23-21.8 22.85-31.13C477 263 459.6 248.5 440.71 248.5c-33.17 0-79.5 35.15-90.38 41.22s-31.45 17-50.58 34.88l-3.27 3s-59.67-33.5-36.48-52.21c-46.3 22.32-85.33 45-118.35 68.5q-9.24 6.6-17.87 13.29a7.37 7.37 0 011.24 0c5.34.57 16.3 2.59 29.68 9.58 16.61 8.69 31.5 22.12 44.24 39.93 21.6 30.19 30.5 63.89 33.32 77a7.92 7.92 0 01-.52 4.94c2.81-1.63 5.63-3.28 8.47-4.99zM448 257c.63-1 2.2-1.11 3.52-.16a3.22 3.22 0 011.44 3.13 2 2 0 01-.18 1.49c-.63 1-2.2 1.12-3.52.17a3.21 3.21 0 01-1.45-3.13 2.12 2.12 0 01.19-1.5zm-17.9 12.12c.67-1.09 2.29-1.18 3.63-.2a3.27 3.27 0 011.45 3.18 2.19 2.19 0 01-.21 1.58c-.66 1.1-2.29 1.19-3.64.2a3.29 3.29 0 01-1.45-3.18 2.18 2.18 0 01.18-1.56zm-18 13.19c.71-1.14 2.39-1.24 3.76-.23a3.39 3.39 0 011.45 3.23A2.32 2.32 0 01417 287c-.7 1.15-2.39 1.26-3.76.24a3.35 3.35 0 01-1.45-3.23 2.3 2.3 0 01.27-1.68zm-19.81 13.81c.76-1.19 2.5-1.31 3.89-.27a3.47 3.47 0 011.45 3.29 2.45 2.45 0 01-.28 1.77c-.75 1.2-2.5 1.33-3.9.28a3.49 3.49 0 01-1.45-3.29 2.52 2.52 0 01.25-1.76zm-24 17.55c.82-1.26 2.63-1.4 4.06-.32a3.57 3.57 0 011.45 3.36 2.68 2.68 0 01-.33 1.89c-.81 1.28-2.63 1.43-4.07.34a3.59 3.59 0 01-1.45-3.37 2.7 2.7 0 01.27-1.88zM346.32 329a2.87 2.87 0 014.21-.37 3.69 3.69 0 011.45 3.43 2.83 2.83 0 01-.39 2 2.86 2.86 0 01-4.22.38 3.66 3.66 0 01-1.44-3.43 2.81 2.81 0 01.39-2.01zm-22.05 16.1a3 3 0 014.37-.41 3.74 3.74 0 011.44 3.48 3.07 3.07 0 01-.44 2.12 3 3 0 01-4.39.42 3.73 3.73 0 01-1.43-3.48 3 3 0 01.45-2.1zm-24 17.11a3.1 3.1 0 014.55-.46 3.79 3.79 0 011.42 3.49 3.24 3.24 0 01-.5 2.31 3.1 3.1 0 01-4.57.47 3.78 3.78 0 01-1.42-3.47 3.27 3.27 0 01.56-2.31zm-25.38 18.44a3.24 3.24 0 014.74-.51 3.81 3.81 0 011.4 3.47 3.47 3.47 0 01-.57 2.52 3.23 3.23 0 01-4.75.52 3.83 3.83 0 01-1.4-3.45 3.5 3.5 0 01.62-2.52zm-22.37 15.65a3.36 3.36 0 014.9-.55 3.88 3.88 0 011.38 3.45 3.66 3.66 0 01-.64 2.71 3.36 3.36 0 01-4.92.56 3.88 3.88 0 01-1.38-3.45 3.7 3.7 0 01.66-2.72zm-24.28 23.9a5.49 5.49 0 01-.61-6.36 3.52 3.52 0 015.09-.6 5.5 5.5 0 01.64 6.35 3.52 3.52 0 01-5.12.61z" fill="#708a9a"/><path d="M233.36 419.59a3.93 3.93 0 00.72-2.87 4 4 0 01-.72 1.87 3.52 3.52 0 01-5.12.61 3.9 3.9 0 01-1.35-2.48 3.92 3.92 0 001.35 3.48 3.52 3.52 0 005.12-.61zm19.88-17.12a3.36 3.36 0 004.92-.56 3.66 3.66 0 00.64-2.71 3.61 3.61 0 01-.64 1.71 3.36 3.36 0 01-4.92.56 3.87 3.87 0 01-1.38-2.45 3.88 3.88 0 001.38 3.45zm22.51-15.79a3.23 3.23 0 004.75-.52 3.47 3.47 0 00.57-2.52 3.29 3.29 0 01-.57 1.52 3.23 3.23 0 01-4.75.52 3.84 3.84 0 01-1.4-2.45 3.83 3.83 0 001.4 3.45zm25.46-18.63a3.1 3.1 0 004.57-.47 3.24 3.24 0 00.5-2.31 3.19 3.19 0 01-.5 1.31 3.1 3.1 0 01-4.57.47 3.86 3.86 0 01-1.42-2.47 3.78 3.78 0 001.42 3.47zm24.04-17.31a3 3 0 004.39-.42 3.07 3.07 0 00.44-2.12 2.86 2.86 0 01-.44 1.12 3 3 0 01-4.39.42 3.88 3.88 0 01-1.43-2.48 3.73 3.73 0 001.43 3.48zm22.12-16.27a2.86 2.86 0 004.22-.38 2.83 2.83 0 00.39-2 2.78 2.78 0 01-.39 1 2.86 2.86 0 01-4.22.38 3.86 3.86 0 01-1.44-2.43 3.66 3.66 0 001.44 3.43zM369.33 319c1.44 1.09 3.26.94 4.07-.34a2.68 2.68 0 00.33-1.89 2.51 2.51 0 01-.33.89c-.81 1.28-2.63 1.43-4.07.34a3.84 3.84 0 01-1.45-2.37 3.59 3.59 0 001.45 3.37zm24.08-17.79c1.4 1.05 3.15.92 3.9-.28a2.45 2.45 0 00.28-1.77 2.17 2.17 0 01-.28.77c-.75 1.2-2.5 1.33-3.9.28a3.74 3.74 0 01-1.45-2.29 3.49 3.49 0 001.45 3.29zm19.85-13.97c1.37 1 3.06.91 3.76-.24a2.32 2.32 0 00.25-1.67 2 2 0 01-.25.67c-.7 1.15-2.39 1.26-3.76.24a3.71 3.71 0 01-1.45-2.23 3.35 3.35 0 001.45 3.23zm18.03-13.34c1.35 1 3 .9 3.64-.2a2.19 2.19 0 00.21-1.58 1.68 1.68 0 01-.21.58c-.66 1.1-2.29 1.19-3.64.2a3.65 3.65 0 01-1.45-2.18 3.29 3.29 0 001.45 3.18zm17.93-12.25c1.32 1 2.89.87 3.52-.17a2 2 0 00.18-1.49 2.05 2.05 0 01-.18.49c-.63 1-2.2 1.12-3.52.17a3.65 3.65 0 01-1.45-2.13 3.21 3.21 0 001.45 3.13z" fill="#091b30"/><path d="M230.8 484c-2.81-13-11.64-46.47-33.09-76.43-7.46-10.43-34.76-44.77-72.86-48.89a5.79 5.79 0 00-.72 0 6.42 6.42 0 00-4 1.38C69.69 400 34.34 444 10 497.42c-.07.16-.14.32-.22.48q-1.09 2.43-2.17 4.88L6.68 505c-.5 1.17-1 2.34-1.5 3.52q-1 2.52-2.06 5.06c-.13.3-.25.6-.37.9A17.3 17.3 0 0010.54 536c.17.09.34.18.52.26l.36.19a17.3 17.3 0 005.82 1.55c2.84.26 5.67.48 8.48.68l1.55.1c2.48.16 4.95.31 7.41.43h.65q8.61.39 17 .4c59 0 112.57-14.49 169.19-45.34l1.68-.92 4-2.21.49-.27a6.43 6.43 0 003.11-6.87zM146 383.53a3.77 3.77 0 01-5.12.91 3.32 3.32 0 01-1.4-3.23 3.5 3.5 0 01.69-2.7 3.78 3.78 0 015.1-.9 3.36 3.36 0 011.41 3.24 3.51 3.51 0 01-.68 2.68zm21.81 14.17a3.73 3.73 0 01-5.13 1 3.5 3.5 0 01-1.46-3.34 3.68 3.68 0 01.66-2.71 3.73 3.73 0 015.1-.95 3.51 3.51 0 011.47 3.35 3.68 3.68 0 01-.68 2.65zm17 20.43a3.64 3.64 0 01-6.67-2.48 3.81 3.81 0 01.63-2.71 3.64 3.64 0 016.65 2.51 3.83 3.83 0 01-.61 2.68zm14.74 22.54a3.66 3.66 0 01-5.19 1.1 3.89 3.89 0 01-1.58-3.68 4 4 0 01.61-2.72 3.66 3.66 0 015.17-1.08 3.87 3.87 0 011.58 3.69 4 4 0 01-.59 2.69zm9 25.88a3.65 3.65 0 01-5.26 1.18 4.11 4.11 0 01-1.63-3.85 4.22 4.22 0 01.6-2.75 3.65 3.65 0 015.23-1.17 4.09 4.09 0 011.64 3.86 4.22 4.22 0 01-.59 2.73z" fill="#c3d8e2"/><path d="M296.48 327.58l3.27-3c19.13-17.91 39.69-28.81 50.58-34.88s57.21-41.22 90.38-41.22c18.89 0 36.24 14.51 38.71 16.65a150.85 150.85 0 0133.15-24.34l.45-.24.38.32a33.26 33.26 0 012.75 3.09l1 1.19 7.09-7.21a17.18 17.18 0 003.17-19.72 91.79 91.79 0 00-9.41-15.17 78.22 78.22 0 00-14.27-14.18 17 17 0 00-10.41-3.53 17.48 17.48 0 00-5.47.88L476.4 190a32 32 0 011.64 3.65l.13.48-.4.31c-18.2 14.2-47.8 28.44-73.07 28.44h-1.24l.05-.79c0-.13.18-2.63.72-6.82-54.64 20-102.4 39.94-144.23 60.1-23.19 18.71 36.48 52.21 36.48 52.21z" fill="#4b5e67"/><path d="M140.84 383.44a3.34 3.34 0 01-1.4-2.23 3.32 3.32 0 001.4 3.23 3.77 3.77 0 005.12-.91 3.51 3.51 0 00.68-2.68 3.59 3.59 0 01-.68 1.68 3.77 3.77 0 01-5.12.91zm21.8 14.22a3.47 3.47 0 01-1.46-2.34 3.5 3.5 0 001.46 3.34 3.73 3.73 0 005.13-1 3.68 3.68 0 00.64-2.69 3.62 3.62 0 01-.64 1.69 3.73 3.73 0 01-5.13 1zm17.02 20.49a3.63 3.63 0 01-1.52-2.5 3.64 3.64 0 006.67 2.48 3.83 3.83 0 00.61-2.68 3.81 3.81 0 01-.61 1.68 3.69 3.69 0 01-5.15 1.02zm14.7 22.62a3.86 3.86 0 01-1.58-2.68 3.89 3.89 0 001.58 3.68 3.66 3.66 0 005.19-1.1 4 4 0 00.59-2.69 4 4 0 01-.59 1.69 3.66 3.66 0 01-5.19 1.1zm8.92 25.96a4 4 0 01-1.63-2.85 4.11 4.11 0 001.63 3.85 3.65 3.65 0 005.26-1.18 4.22 4.22 0 00.58-2.73 4.23 4.23 0 01-.58 1.73 3.65 3.65 0 01-5.26 1.18z" fill="#091b30"/><path d="M145.23 377.61a3.78 3.78 0 00-5.1.9 3.5 3.5 0 00-.69 2.7 3.34 3.34 0 001.4 2.23 3.77 3.77 0 005.12-.91 3.59 3.59 0 00.68-1.68 3.36 3.36 0 00-1.41-3.24zm21.71 14.05a3.73 3.73 0 00-5.1.95 3.68 3.68 0 00-.66 2.71 3.47 3.47 0 001.46 2.34 3.73 3.73 0 005.13-1 3.62 3.62 0 00.64-1.69 3.51 3.51 0 00-1.47-3.31zm16.96 20.27a3.68 3.68 0 00-5.13 1 3.81 3.81 0 00-.63 2.71 3.63 3.63 0 001.52 2.5 3.69 3.69 0 005.15-1 3.81 3.81 0 00.61-1.68 3.69 3.69 0 00-1.52-3.53zm14.66 22.36a3.66 3.66 0 00-5.17 1.08 4 4 0 00-.61 2.72 3.86 3.86 0 001.58 2.68 3.66 3.66 0 005.19-1.1 4 4 0 00.59-1.69 3.87 3.87 0 00-1.58-3.69zm8.92 25.71a3.65 3.65 0 00-5.23 1.17 4.22 4.22 0 00-.6 2.75 4 4 0 001.63 2.85 3.65 3.65 0 005.26-1.18 4.23 4.23 0 00.58-1.73 4.09 4.09 0 00-1.64-3.86zm25.88-41.41a4 4 0 00.72-1.87 3.9 3.9 0 00-1.36-3.48 3.52 3.52 0 00-5.09.6 4 4 0 00.61 5.36 3.52 3.52 0 005.12-.61zm19.88-17.12a3.36 3.36 0 004.92-.56 3.61 3.61 0 00.64-1.71 3.88 3.88 0 00-1.38-3.45 3.36 3.36 0 00-4.9.55 3.7 3.7 0 00-.66 2.72 3.87 3.87 0 001.38 2.45zm22.51-15.79a3.23 3.23 0 004.75-.52 3.29 3.29 0 00.57-1.52 3.81 3.81 0 00-1.4-3.47 3.24 3.24 0 00-4.74.51 3.5 3.5 0 00-.58 2.55 3.84 3.84 0 001.4 2.45zm25.46-18.63a3.1 3.1 0 004.57-.47 3.19 3.19 0 00.5-1.31 3.79 3.79 0 00-1.42-3.49 3.1 3.1 0 00-4.55.46 3.27 3.27 0 00-.52 2.34 3.86 3.86 0 001.42 2.47zm24.04-17.31a3 3 0 004.39-.42 2.86 2.86 0 00.44-1.12 3.74 3.74 0 00-1.44-3.48 3 3 0 00-4.37.41 3 3 0 00-.45 2.13 3.88 3.88 0 001.43 2.48zm22.12-16.27a2.86 2.86 0 004.22-.38 2.78 2.78 0 00.39-1 3.69 3.69 0 00-1.45-3.43 2.87 2.87 0 00-4.21.37 2.81 2.81 0 00-.39 2 3.86 3.86 0 001.44 2.44zM369.33 318c1.44 1.09 3.26.94 4.07-.34a2.51 2.51 0 00.33-.89 3.57 3.57 0 00-1.45-3.36c-1.43-1.08-3.24-.94-4.06.32a2.7 2.7 0 00-.34 1.9 3.84 3.84 0 001.45 2.37zm24.08-17.79c1.4 1.05 3.15.92 3.9-.28a2.17 2.17 0 00.28-.77 3.47 3.47 0 00-1.45-3.29c-1.39-1-3.13-.92-3.89.27a2.52 2.52 0 00-.29 1.78 3.74 3.74 0 001.45 2.29zm19.85-13.97c1.37 1 3.06.91 3.76-.24a2 2 0 00.25-.67 3.39 3.39 0 00-1.45-3.23c-1.37-1-3.05-.91-3.76.23a2.3 2.3 0 00-.25 1.68 3.71 3.71 0 001.45 2.23zm18.03-13.34c1.35 1 3 .9 3.64-.2a1.68 1.68 0 00.21-.58 3.27 3.27 0 00-1.45-3.18c-1.34-1-3-.89-3.63.2a2.18 2.18 0 00-.22 1.58 3.65 3.65 0 001.45 2.18zm17.93-12.25c1.32 1 2.89.87 3.52-.17a2.05 2.05 0 00.18-.49 3.22 3.22 0 00-1.44-3.13c-1.32-1-2.89-.87-3.52.16a2.12 2.12 0 00-.19 1.5 3.65 3.65 0 001.45 2.13zm-44.15-39.26c24.64-.14 53.4-13.93 71.35-27.79-.27-.67-.8-1.76-1.43-3.06-3.8-7.82-12.7-26.15-9.62-42.77 4.1-22.13 26.67-26.4 36.18-27.21a.62.62 0 00.58-.54.61.61 0 00-.38-.68 63.86 63.86 0 00-23.4-4.74 46.06 46.06 0 00-28.5 9.44c-37.95 28.96-44.15 89.69-44.78 97.35z" fill="#4b5e67"/><path d="M474.52 272.34a94.15 94.15 0 00-16.25 23.81c7.1 2.5 63 21 104.66.21-30.68 12.05-70.93-13.08-88.41-24.02z" fill="#708a9a"/><path d="M590.92 249.63a.6.6 0 00-.46-.62.61.61 0 00-.74.31c-4.06 7.34-14.71 22.81-32.11 22.81a31.69 31.69 0 01-7.51-.92c-16.42-4-29.51-19.6-35.1-26.27-.92-1.1-1.7-2-2.2-2.55a149.36 149.36 0 00-38.28 29.95c17.52 10.94 57.73 36.07 88.41 24q1.26-.62 2.49-1.29c22.03-11.96 25.17-35.75 25.5-45.42z" fill="#4b5e67"/><path d="M590.86 247.56a2.11 2.11 0 00-2.45 1c-12.9 23.29-29.32 23.25-37.95 21.16-14.27-3.46-26.07-16.11-32.33-23.43l7.2-7.31a18.7 18.7 0 003.44-21.44 94.42 94.42 0 00-9.62-15.44 80.23 80.23 0 00-14.54-14.45 18.67 18.67 0 00-17.27-2.88q-5.85 1.92-11.6 3.85c-4-8.25-11.73-25.27-8.89-40.6 1.61-8.74 8.29-23.74 34.82-26a2.12 2.12 0 001.94-1.82 2.07 2.07 0 00-1.29-2.28c-9.2-3.76-32.82-10.79-53.38 4.88-32.2 24.56-41.83 71.54-44.49 90.75-115.62 42.45-200.58 84.11-263.67 129.1s-104.37 93-132.1 154.06c-.13.27-.25.55-.37.82-.69 1.52-1.37 3-2 4.56l-1.2 2.8c-.41 1-.83 1.93-1.23 2.91q-1.27 3-2.49 6.09a18.58 18.58 0 001.44 16.75 18.65 18.65 0 0014.31 8.88c12.32 1.12 24.31 1.68 36.07 1.68 65.44 0 123.37-17.62 187.81-56.27 60.71-36.41 129.65-93.32 223.59-185.19 10.35 3.05 30.14 7.86 51.89 7.86 16.52 0 34.17-2.77 49.68-11.21 22.7-12.35 25.94-36.78 26.28-46.71a2.1 2.1 0 00-1.6-2.12zm-89.11-128.22a.61.61 0 01.38.68.62.62 0 01-.58.54c-9.51.81-32.08 5.08-36.18 27.21-3.08 16.62 5.82 34.95 9.62 42.77.63 1.3 1.16 2.39 1.43 3.06-17.95 13.86-46.71 27.65-71.35 27.79.63-7.66 6.83-68.41 44.78-97.35a46.06 46.06 0 0128.5-9.44 63.86 63.86 0 0123.4 4.74zm61.18 177c-41.7 20.77-97.56 2.29-104.66-.21a94.15 94.15 0 0116.25-23.81 149.36 149.36 0 0138.28-29.95c.5.52 1.28 1.45 2.2 2.55 5.59 6.67 18.68 22.28 35.1 26.27a31.69 31.69 0 007.51.92c17.4 0 28-15.47 32.11-22.81a.61.61 0 01.74-.31.6.6 0 01.46.62c-.33 9.67-3.47 33.46-25.5 45.44q-1.23.7-2.49 1.31zM227.21 491.19l-4 2.21-1.68.92c-56.62 30.85-110.19 45.34-169.19 45.34q-8.43 0-17-.4h-.65c-2.46-.12-4.93-.27-7.41-.43l-1.55-.1c-2.81-.2-5.64-.42-8.48-.68a17.3 17.3 0 01-5.82-1.56l-.36-.19c-.18-.08-.35-.17-.52-.26a17.3 17.3 0 01-7.79-21.58c.12-.3.24-.6.37-.9q1-2.53 2.06-5.06c.49-1.18 1-2.35 1.5-3.52l.93-2.17q1.08-2.44 2.17-4.88c.08-.16.15-.32.22-.48C34.34 444 69.69 400 120.14 360a6.42 6.42 0 014-1.38 5.79 5.79 0 01.72 0c38.1 4.12 65.4 38.46 72.86 48.89C219.16 437.53 228 471 230.8 484a6.43 6.43 0 01-3.1 6.92zm5-7.51c-2.82-13.09-11.72-46.79-33.32-77-12.74-17.81-27.63-31.24-44.24-39.93-13.38-7-24.34-9-29.68-9.58a7.37 7.37 0 00-1.24 0q8.64-6.71 17.87-13.29c33-23.54 72-46.18 118.35-68.5 41.83-20.16 89.59-40.05 144.23-60.1-.54 4.19-.71 6.69-.72 6.82l-.05.79h1.24c25.27 0 54.87-14.24 73.07-28.44l.4-.31-.13-.48a32 32 0 00-1.59-3.66l11.41-3.79a17.48 17.48 0 015.47-.88 17 17 0 0110.41 3.53A78.22 78.22 0 01518 203.05a91.79 91.79 0 019.46 15.19 17.18 17.18 0 01-3.21 19.76l-7.09 7.21-1-1.19a33.26 33.26 0 00-2.75-3.09l-.38-.32-.45.24a150.85 150.85 0 00-33.15 24.34c-9.62 9.33-18 20-22.85 31.13l-.32.72.74.28c.11.05 2.26.84 5.94 2-93.54 91.45-162.24 148.13-222.72 184.4-2.84 1.71-5.66 3.35-8.47 5a7.92 7.92 0 00.51-5.04z" fill="#091b30"/><path d="M147.21 346.74l8.42-6.35 4.22-3.16 4.33-3.06c5.8-4 11.7-7.87 17.64-11.64A665.92 665.92 0 01254.89 283a13.4 13.4 0 015.13-7.7c-46.3 22.31-85.34 45-118.35 68.49q-9.25 6.6-17.87 13.29a8.42 8.42 0 011.23 0 66.81 66.81 0 017.43 1.27l6.36-5.29c2.76-2.06 5.59-4.19 8.39-6.32z" fill="#708a9a"/><path d="M233.37 419.55a3.91 3.91 0 00.73-2.86 3.84 3.84 0 01-.73 1.86 3.52 3.52 0 01-5.11.62 3.85 3.85 0 01-1.35-2.49 3.94 3.94 0 001.35 3.49 3.52 3.52 0 005.11-.62zm19.89-17.11a3.36 3.36 0 004.92-.57 3.73 3.73 0 00.64-2.7 3.58 3.58 0 01-.64 1.7 3.36 3.36 0 01-4.92.57 3.87 3.87 0 01-1.38-2.46 3.87 3.87 0 001.38 3.46zm22.5-15.79a3.25 3.25 0 004.76-.53 3.47 3.47 0 00.57-2.52 3.36 3.36 0 01-.57 1.52 3.25 3.25 0 01-4.76.53 3.89 3.89 0 01-1.39-2.46 3.84 3.84 0 001.39 3.46zM301.22 368a3.12 3.12 0 004.58-.48 3.28 3.28 0 00.5-2.31 3.08 3.08 0 01-.5 1.31 3.12 3.12 0 01-4.58.48 3.87 3.87 0 01-1.41-2.48 3.82 3.82 0 001.41 3.48zm24.05-17.3a2.85 2.85 0 004.82-2.53 2.86 2.86 0 01-.43 1.11 3 3 0 01-4.39.42 3.77 3.77 0 01-1.43-2.48 3.7 3.7 0 001.43 3.48zm22.12-16.27a2.69 2.69 0 004.6-2.38 2.54 2.54 0 01-.38 1 2.85 2.85 0 01-4.22.38A3.75 3.75 0 01346 331a3.64 3.64 0 001.39 3.43zm21.96-15.51c1.43 1.09 3.25.94 4.07-.33a2.68 2.68 0 00.33-1.89 2.59 2.59 0 01-.33.89c-.82 1.27-2.64 1.42-4.07.33a3.77 3.77 0 01-1.45-2.37 3.56 3.56 0 001.45 3.37zm24.08-17.75c1.4 1.05 3.15.93 3.9-.28a2.48 2.48 0 00.28-1.76 2.24 2.24 0 01-.28.76c-.75 1.21-2.5 1.33-3.9.28a3.74 3.74 0 01-1.45-2.29 3.46 3.46 0 001.45 3.29zm19.84-13.97c1.38 1 3.06.91 3.77-.24a2.3 2.3 0 00.24-1.66 2.18 2.18 0 01-.24.66c-.71 1.15-2.39 1.26-3.77.24a3.7 3.7 0 01-1.45-2.23 3.39 3.39 0 001.45 3.23zm18.03-13.33c1.35 1 3 .89 3.65-.21a2.21 2.21 0 00.21-1.57 2 2 0 01-.21.57c-.67 1.1-2.3 1.19-3.65.21a3.7 3.7 0 01-1.44-2.19 3.3 3.3 0 001.44 3.19zm17.93-12.26c1.32 1 2.9.88 3.52-.17a2.07 2.07 0 00.19-1.48 1.66 1.66 0 01-.19.48c-.62 1.05-2.2 1.13-3.52.17a3.6 3.6 0 01-1.44-2.13 3.2 3.2 0 001.44 3.13zm-308.37 121.8a3.37 3.37 0 01-1.41-2.24 3.37 3.37 0 001.41 3.24 3.79 3.79 0 005.12-.91 3.57 3.57 0 00.68-2.69 3.58 3.58 0 01-.68 1.69 3.79 3.79 0 01-5.12.91zm21.8 15.21a3.71 3.71 0 005.12-1 3.62 3.62 0 00.65-2.68 3.76 3.76 0 01-.65 1.68 3.71 3.71 0 01-5.12 1 3.45 3.45 0 01-1.46-2.33 3.47 3.47 0 001.46 3.33zm17.02 20.5a3.67 3.67 0 005.14-1 3.82 3.82 0 00.62-2.68 3.78 3.78 0 01-.62 1.68 3.67 3.67 0 01-5.14 1 3.61 3.61 0 01-1.52-2.51 3.68 3.68 0 001.52 3.51zm14.7 22.61a3.66 3.66 0 005.19-1.1 4.06 4.06 0 00.59-2.69 4 4 0 01-.59 1.69 3.66 3.66 0 01-5.19 1.1 3.81 3.81 0 01-1.58-2.68 3.89 3.89 0 001.58 3.68zm8.92 25.96a3.64 3.64 0 005.25-1.18 4.26 4.26 0 00.59-2.72 4.11 4.11 0 01-.59 1.72 3.64 3.64 0 01-5.25 1.18 4 4 0 01-1.63-2.84 4.06 4.06 0 001.63 3.84z" fill="#091b30"/><path d="M145.24 377.58a3.78 3.78 0 00-5.1.89 3.55 3.55 0 00-.69 2.7 3.37 3.37 0 001.41 2.24 3.79 3.79 0 005.12-.91 3.58 3.58 0 00.68-1.69 3.35 3.35 0 00-1.42-3.23zm17.42 20.04a3.71 3.71 0 005.12-1 3.76 3.76 0 00.65-1.68 3.5 3.5 0 00-1.47-3.35 3.71 3.71 0 00-5.1.94 3.62 3.62 0 00-.66 2.72 3.45 3.45 0 001.46 2.37zm17.02 20.5a3.67 3.67 0 005.14-1 3.78 3.78 0 00.62-1.68 3.64 3.64 0 00-6.65-2.51 3.82 3.82 0 00-.63 2.71 3.61 3.61 0 001.52 2.48zm14.7 22.61a3.66 3.66 0 005.19-1.1 4 4 0 00.59-1.69 3.9 3.9 0 00-1.58-3.69 3.66 3.66 0 00-5.17 1.08 4 4 0 00-.61 2.72 3.81 3.81 0 001.58 2.68zm8.92 25.96a3.64 3.64 0 005.25-1.18 4.25 4.25 0 00-1.05-5.58 3.66 3.66 0 00-5.24 1.16 4.25 4.25 0 00-.59 2.76 4 4 0 001.63 2.84zm30.07-48.14a3.84 3.84 0 00.73-1.86 3.92 3.92 0 00-1.36-3.48 3.51 3.51 0 00-5.09.6 4 4 0 00.61 5.36 3.52 3.52 0 005.11-.62zm19.89-17.11a3.36 3.36 0 004.92-.57 3.58 3.58 0 00.64-1.7 3.9 3.9 0 00-1.39-3.46 3.37 3.37 0 00-4.9.56 3.66 3.66 0 00-.65 2.71 3.87 3.87 0 001.38 2.46zm22.5-15.79a3.25 3.25 0 004.76-.53 3.36 3.36 0 00.57-1.52 3.86 3.86 0 00-1.4-3.47 3.25 3.25 0 00-4.74.51 3.51 3.51 0 00-.58 2.55 3.89 3.89 0 001.39 2.46zM301.22 367a3.12 3.12 0 004.58-.48 3.08 3.08 0 00.5-1.31 3.79 3.79 0 00-1.42-3.48 3.11 3.11 0 00-4.56.45 3.28 3.28 0 00-.51 2.34 3.87 3.87 0 001.41 2.48zm24.05-17.3a3 3 0 004.39-.42 2.86 2.86 0 00.43-1.11 3.74 3.74 0 00-1.43-3.49 2.85 2.85 0 00-4.82 2.54 3.77 3.77 0 001.43 2.48zm22.12-16.27a2.85 2.85 0 004.22-.38 2.54 2.54 0 00.38-1 3.64 3.64 0 00-1.44-3.42A2.69 2.69 0 00346 331a3.75 3.75 0 001.39 2.43zm21.96-15.51c1.43 1.09 3.25.94 4.07-.33a2.59 2.59 0 00.33-.89 3.58 3.58 0 00-1.45-3.37c-1.43-1.08-3.24-.94-4.06.32a2.66 2.66 0 00-.34 1.9 3.77 3.77 0 001.45 2.37zm24.08-17.75c1.4 1.05 3.15.93 3.9-.28a2.24 2.24 0 00.28-.76 3.47 3.47 0 00-1.45-3.3c-1.39-1-3.13-.92-3.89.27a2.48 2.48 0 00-.29 1.78 3.74 3.74 0 001.45 2.29zm19.84-13.97c1.38 1 3.06.91 3.77-.24a2.18 2.18 0 00.24-.66 3.36 3.36 0 00-1.45-3.24c-1.36-1-3-.9-3.75.23a2.36 2.36 0 00-.26 1.68 3.7 3.7 0 001.45 2.23zm18.03-13.33c1.35 1 3 .89 3.65-.21a2 2 0 00.21-.57 3.29 3.29 0 00-1.45-3.19c-1.34-1-3-.89-3.63.2a2.15 2.15 0 00-.22 1.58 3.7 3.7 0 001.44 2.19zm17.93-12.26c1.32 1 2.9.88 3.52-.17a1.66 1.66 0 00.19-.48 3.19 3.19 0 00-1.45-3.13c-1.31-.95-2.88-.88-3.51.16a2 2 0 00-.19 1.49 3.6 3.6 0 001.44 2.13z" fill="#4b5e67"/><path d="M590.88 247.52a2.12 2.12 0 00-2.45 1c-12.9 23.3-29.32 23.26-38 21.16-14.27-3.46-26.06-16.11-32.32-23.42l7.19-7.31a18.7 18.7 0 003.44-21.44 93.59 93.59 0 00-9.62-15.45 79.86 79.86 0 00-14.54-14.44 18.64 18.64 0 00-17.27-2.89q-5.84 1.94-11.59 3.86c-4-8.26-11.73-25.28-8.9-40.61 1.62-8.74 8.3-23.74 34.83-26a2.13 2.13 0 00.64-4.1c-9.2-3.75-32.81-10.79-53.37 4.89-32.2 24.55-41.83 71.54-44.49 90.75-115.63 42.38-200.59 84.07-263.68 129.05s-104.38 93-132.11 154.1c-.11.23-.21.45-.31.68q-1.06 2.34-2.1 4.71c-.36.83-.71 1.67-1.07 2.51-.46 1.06-.92 2.13-1.37 3.2-.83 2-1.66 4-2.47 6.05a18.56 18.56 0 001.49 16.78 18.69 18.69 0 007.42 6.9 18.92 18.92 0 006.89 2c12.32 1.12 24.31 1.69 36.07 1.69 65.44 0 123.37-17.62 187.81-56.28 60.7-36.41 129.65-93.32 223.58-185.19 10.36 3.05 30.14 7.87 51.9 7.87 16.51 0 34.16-2.78 49.67-11.22 22.71-12.35 26-36.78 26.28-46.71a2.09 2.09 0 00-1.55-2.14zm-89.11-128.21a.6.6 0 01.38.67.63.63 0 01-.59.55c-9.51.8-32.07 5.07-36.17 27.21-3.08 16.62 5.82 34.94 9.62 42.77.63 1.3 1.16 2.38 1.43 3.06-17.95 13.85-46.72 27.65-71.36 27.78.64-7.66 6.83-68.4 44.79-97.35a46.06 46.06 0 0128.5-9.44 63.62 63.62 0 0123.4 4.75zm61.18 177c-41.7 20.76-97.56 2.28-104.67-.22a94.41 94.41 0 0116.26-23.8 149.37 149.37 0 0138.27-30c.51.53 1.28 1.45 2.21 2.56 5.59 6.66 18.67 22.27 35.1 26.26 21.88 5.31 35-13.54 39.62-21.89a.63.63 0 01.74-.31.59.59 0 01.45.62c-.32 9.67-3.46 33.46-25.49 45.45zM232.28 483.64c-2.82-13.09-11.72-46.79-33.33-77-12.74-17.8-27.62-31.24-44.23-39.92-1.38-.72-2.72-1.38-4-2l-1.26.93c25.09 11.68 42.57 33.83 48.31 41.85 21.4 30 30.23 63.5 33.04 76.5a6.41 6.41 0 01-3.09 6.92l-.54.3c-1.28.73-2.56 1.43-3.85 2.14l-1.79 1c-56.6 30.84-110.17 45.32-169.15 45.32q-8.47 0-17.11-.4h-.53q-3.75-.18-7.52-.44l-1.47-.09c-2.83-.2-5.66-.42-8.51-.68a17.32 17.32 0 01-5.81-1.57 9.99 9.99 0 01-.73-.37l-.15-.07a17.33 17.33 0 01-8.14-20.64c.1-.31.22-.62.34-.93.25-.63.51-1.25.76-1.88.55-1.35 1.1-2.7 1.66-4s1.09-2.59 1.65-3.88c.26-.61.51-1.21.77-1.81q1.13-2.57 2.28-5.1l.11-.26C34.33 444 69.69 400 120.15 360a6.38 6.38 0 014-1.39h.72c2.09.23 4.14.56 6.16 1l1.43-1.18a66.81 66.81 0 00-7.43-1.27 8.42 8.42 0 00-1.23 0q8.63-6.69 17.87-13.29c33-23.54 72.05-46.18 118.35-68.49 41.82-20.16 89.59-40 144.22-60.1-.54 4.18-.71 6.69-.71 6.82v.79h1.24c25.27 0 54.86-14.24 73.07-28.43l.4-.31-.14-.49a31.4 31.4 0 00-1.63-3.64l11.41-3.8a17.42 17.42 0 015.46-.88 17.07 17.07 0 0110.42 3.53A79.19 79.19 0 01518 203a93 93 0 019.46 15.2 17.18 17.18 0 01-3.17 19.71l-7.1 7.22-1-1.2a32.68 32.68 0 00-2.75-3.08l-.39-.33-.44.24a151.2 151.2 0 00-33.16 24.35c-9.61 9.32-18 20-22.85 31.12l-.32.73.74.28c.12 0 2.26.83 5.94 2-93.56 91.41-162.26 148.09-222.73 184.37q-4.26 2.55-8.48 5a7.85 7.85 0 00.53-4.97z" fill="#091b30"/><path d="M493.53 253.05a143.19 143.19 0 0119.06-12.28l.44-.24.39.33a32.68 32.68 0 012.75 3.08l1 1.2 7.1-7.22a17.18 17.18 0 003.17-19.71A93 93 0 00518 203a79.19 79.19 0 00-14.27-14.18 17.07 17.07 0 00-10.42-3.53 17.42 17.42 0 00-5.46.88L476.42 190a31.4 31.4 0 011.63 3.64l.14.49-.4.31a143.61 143.61 0 01-20.4 13.13A52.44 52.44 0 00467.61 230c7.84 9.8 22.74 20.76 25.92 23.05z" fill="url(#b)"/><path d="M553 282.86c25.91-1.95 34.16-26.24 35.72-31.84-5.35 8.94-18.15 25.11-38.62 20.15-16.43-4-29.51-19.6-35.1-26.26-.93-1.11-1.7-2-2.21-2.56a145.28 145.28 0 00-21.09 14c3.8 4.08 28.3 29 61.3 26.51z" fill="url(#c)"/><path d="M467.44 127.49c-27.94 21-15.8 73.51-14.05 80.46a146.62 146.62 0 0023.05-14.38c-.27-.68-.8-1.76-1.43-3.06-3.8-7.83-12.7-26.15-9.62-42.77 3.87-20.94 24.26-25.89 34.51-27.05-17.19-1.07-28.66 3.95-32.46 6.8z" fill="url(#d)"/><path d="M261.65 294.39c-24 13.68-47.93 27.3-70.94 42.1q-8.62 5.55-17 11.39l-4.17 2.92-4.12 3.06-8.25 6.14c-2.74 2-5.52 4-8.24 6.1l-8 6.39-8 6.38-2 1.6-1.93 1.62-3.89 3.34a585.48 585.48 0 00-58.8 57.17c-9.14 10.21-17.9 20.8-26.14 31.82L37 478.54c-1.06 1.37-2 2.8-3 4.19L31 487c-1 1.4-1.91 2.87-2.9 4.28s-1.94 2.86-2.89 4.3l-2.77 4.38c-1.85 2.91-3.62 5.89-5.3 8.9a.51.51 0 01-.68.2.52.52 0 01-.23-.6 166.65 166.65 0 018.14-19.35c1.48-3.18 3.16-6.25 4.8-9.34s3.34-6.16 5.12-9.18L37 466c.91-1.5 1.86-3 2.79-4.45 1.9-2.95 3.7-6 5.68-8.87 4-5.75 7.91-11.61 12.24-17.13a439.88 439.88 0 0157.09-61.91l3.89-3.56 2-1.78c.66-.59 1.35-1.13 2-1.7l8.1-6.75 8.11-6.74c2.76-2.18 5.59-4.26 8.39-6.39l8.42-6.35 4.22-3.16 4.33-3.06c5.8-4 11.7-7.87 17.64-11.64a664.43 664.43 0 0173.81-39.83 6.58 6.58 0 016.05 11.67z" fill="#fff" opacity=".5"/><path d="M265.4 42c.92-6.62-.25-13.2-3-16.76-4.75-6.24-15.78-10.74-26.21-10.74a30.17 30.17 0 00-9.78 1.5c-8.29 2.85-11.42 7.23-11.54 16.18-.14 10.71 3.38 18.06 10.18 21.25 3.1 1.46 11.45 3 20 3 7.06 0 12.5-1 14.93-2.86 2.72-2 4.68-6.22 5.42-11.57z" fill="#badcea"/><path d="M263.61 24.32c-5-6.52-16.44-11.32-27.42-11.32a31.91 31.91 0 00-10.27 1.6c-8.78 3-12.42 8-12.55 17.58-.19 15.09 6.57 20.53 11 22.63 3.67 1.72 12.45 3.11 20.69 3.11 6.56 0 12.78-.88 15.83-3.15 7.22-5.37 8.4-23.03 2.72-30.45zm-38.56 29.13c-6.8-3.19-10.32-10.54-10.18-21.25.12-9 3.25-13.33 11.54-16.18a30.17 30.17 0 019.78-1.52c10.43 0 21.46 4.52 26.23 10.74 2.73 3.56 3.9 10.14 3 16.76-.74 5.35-2.7 9.57-5.37 11.56-2.43 1.82-7.87 2.86-14.93 2.86-8.62 0-16.97-1.51-20.07-2.97z" fill="#091b30"/><path d="M222.18 17.87C217 20.73 215 25 214.87 32.2c-.12 9.71 2.77 16.64 8.37 20.24a55.74 55.74 0 01-4.63-19.15 26.46 26.46 0 013.57-15.42zm39.18 19.67a49.17 49.17 0 00-1.95-15.36c-5.56-4.59-14.59-7.68-23.22-7.68a32.86 32.86 0 00-5.14.39 34 34 0 00-5.87 18.4c-.21 9.23 2.74 17.93 4.12 21.49a75.58 75.58 0 0015.8 1.64 44.22 44.22 0 0011-1.15c2.67-3.27 4.9-7.12 5.26-17.73z" fill="none"/><path d="M261.36 37.54c-.36 10.61-2.59 14.46-5.28 17.73a11.61 11.61 0 003.92-1.71c2.67-2 4.63-6.21 5.37-11.56.92-6.62-.25-13.2-3-16.76a18.85 18.85 0 00-3-3.06 49.17 49.17 0 011.99 15.36z" fill="#9ccedb"/><path d="M232.33 13.21h-.18.16zm-7.15 20.08a34 34 0 015.87-18.4 27.35 27.35 0 00-4.64 1.11 25.69 25.69 0 00-4.23 1.85 26.46 26.46 0 00-3.57 15.42 55.74 55.74 0 004.63 19.15 15.86 15.86 0 001.81 1 22.78 22.78 0 004.25 1.33c-1.38-3.53-4.3-12.23-4.12-21.46zM224 15.32z" fill="#fff" opacity=".5"/><path d="M214.1 18.87a26.74 26.74 0 011.18-2.59 26.74 26.74 0 00-1.18 2.59zm10.99-12.71a31 31 0 013.48-1.67 31 31 0 00-3.48 1.67zm-5.85 50.13a7.83 7.83 0 00-.4-1 7.83 7.83 0 01.4 1zm-2.58-42.36a23.65 23.65 0 011.58-2.11 23.65 23.65 0 00-1.58 2.11zM212 28.18a37.05 37.05 0 011.19-6.47 37.05 37.05 0 00-1.19 6.47zm-.26 5.58a50 50 0 01.22-5.58 50 50 0 00-.22 5.58zm5.26 18.3c-.35-.56-.72-1.15-1.09-1.79.41.64.78 1.23 1.09 1.79zm.72 1.1z" fill="none"/><path d="M289.1 324.49a17.1 17.1 0 01-7.42 1.38c-9.33 0-22.89-4.24-35.9-9.37l-1.09.52-.26.12c-.44.2-.88.4-1.32.57l-.2.08c-.42.18-.85.34-1.27.49h-.11c-.44.16-.87.31-1.29.44l-.24.08-1.22.37-.21.05c-.41.12-.82.23-1.21.32l-1.16.27h-.18l-1 .21h-.19l-1 .17h-.09l-.84.13h-.11l-.36.05c17.31 6.82 37.44 13.09 45.38 13.95 5.11.56 8.79-.19 11.43-1.41a13.6 13.6 0 00-.14-8.42z" fill="#00628f"/><path d="M280.75 304.34c-.47-.5-5.42 1.36-8.78 4.67-3.58 3.53-6.83 9.87-7.62 9.63-1-.32 2-6.24 5.12-10.54 2.62-3.6 7-7.31 6.79-7.44-4.43-2.66-9.19-2.76-13.52.59-6.4 4.95-8.06 9.34-12.33 12.44a33.34 33.34 0 01-2.87 1.86c21.17 8.25 35.45 10.8 41.4 7.33a12.42 12.42 0 001.53-1c-1.18-6.98-4.79-12.33-9.72-17.54z" fill="#fff"/><path d="M244.43 317.14c-.44.2-.88.4-1.32.57.44-.17.89-.37 1.32-.57zm-1.52.65c-.42.18-.85.34-1.27.49.42-.15.85-.28 1.27-.49zm-1.38.53zm4.25-1.82c-.36.18-.72.36-1.08.52zm-10.98 3.63l-1 .17zm5.2-1.29l-1.22.37zm-7.57 1.66l.36-.05zm1.32-.19l-.84.13zm3.61-.73l-1.16.27zm1.21-.32zm-2.57.63l-1 .21zm19.82-19.24c-4.07 6.15-9.23 10.18-15.35 12l2.13.88c1.69.7 3.33 1.35 4.94 2a33.34 33.34 0 002.87-1.86c4.27-3.1 5.93-7.49 12.33-12.44 4.33-3.35 9.09-3.25 13.52-.59.22.13-4.17 3.84-6.79 7.44-3.12 4.3-6.14 10.22-5.12 10.54.79.24 4-6.1 7.62-9.63 3.36-3.31 8.31-5.17 8.78-4.67 4.93 5.21 8.54 10.56 9.72 17.5a10.14 10.14 0 004.09-8.33c.06-7.44-7-19.43-19-26.73-1.7.31-12.16 2.47-19.74 13.89z" fill="#078ccd"/><path d="M232.91 320.44l.84-.13h.09l1-.17h.19l1-.21h.18l1.16-.27c.39-.09.8-.2 1.21-.32l.21-.05 1.22-.37.24-.08c.42-.13.85-.28 1.29-.44h.11c.42-.15.85-.31 1.27-.49l.2-.08c.44-.17.88-.37 1.32-.57l.26-.12c.36-.16.72-.34 1.08-.52-2.63-1-5.23-2.11-7.78-3.2l-.54.11a29.32 29.32 0 01-5.18.45 45.67 45.67 0 01-17.73-4.1 65.12 65.12 0 01-8.28-4.34l-.5 1.92c4.46 3.63 14.92 8.52 26.67 13.16l.37-.05zm63.15-6.91a11.94 11.94 0 01-6.36 10.65l-.6.31a13.6 13.6 0 01.15 8.55 11.57 11.57 0 006.26-6.42l.69-12.35a2.08 2.08 0 00-.14-.86z" fill="#0f3756"/><path d="M340.19 289.53c4.75.52 8-.35 10.13-1.59a13 13 0 00-.4-6.52 13.35 13.35 0 01-6.57 1.38c-8.39 0-20.94-4.18-32.48-8.91a69.31 69.31 0 01-12.58 2.27c14.98 6.28 34.71 12.58 41.9 13.37z" fill="#00628f"/><path d="M350.32 287.94a9.17 9.17 0 004.15-4.69l.48-8.48a10 10 0 01-5 6.64 13 13 0 01.37 6.53zm-68.76-20.44c3 2.43 9.3 5.54 16.73 8.66a69.31 69.31 0 0012.58-2.27c-1.45-.6-2.9-1.21-4.31-1.82-9.58 1.35-19.95-3.43-24.63-6z" fill="#0f3756"/><path d="M32 191.82a50.1 50.1 0 0110.27-13c4.3-3.93 10.06-8.75 16.49-11.83 5.7-2.73-5.92-14.28-5.06-16.53-.91-1-1.7-2-2.35-2.93-11.4 7.35-25.63 17.73-30.2 26.26a8.22 8.22 0 00-1.27 4.05c3.13-6.36 12.25-16.64 20-18.16l1-.78a.75.75 0 11.9 1.2c-9.39 7-15.48 13-18.11 17.93-1.11 2.09-1.53 3.74-1.15 4.54a1 1 0 00.57.52 32.56 32.56 0 018-11.64c7.15-6.68 11.21-7.86 13-8l.67-.5a.75.75 0 01.9 1.2c-9.54 7.07-15.72 13.17-18.38 18.13-1.11 2.09-1.53 3.75-1.15 4.55.06.12.25.51 1.06.66h.1c.94-2.54 3.87-7.79 9.74-13.15a23.46 23.46 0 0110.65-5.91l1.1-.83a.75.75 0 11.9 1.2c-9.27 6.92-15.29 12.9-17.9 17.77-1.12 2.09-1.54 3.75-1.15 4.55.06.13.24.51 1.05.66a1.66 1.66 0 00.32.04z" fill="#fff"/><path d="M58.77 167c-6.43 3.08-12.19 7.9-16.49 11.83a50.1 50.1 0 00-10.27 13c2.51.28 5.78-2.23 10.09-5.81C47 182 53 177.5 60.39 172.41a1.21 1.21 0 011.74 1.59c-3.36 5.67-5.49 9.88-5.83 11.56-.42 2.1 0 3.61 1.17 4.13 1.55.69 4.45-.37 7-3.73l1.73-2.31c2.65-3.56 6.61-8.86 10.34-13.65-7.73-5.33-17.34-13.38-22.8-19.59-.89 2.27 10.73 13.82 5.03 16.59z" fill="#078ccd"/><path d="M235.35 92.36a18.16 18.16 0 00-4.52.88 6.38 6.38 0 01-.43 3.47c3-1.32 5.07-2.64 5.68-3.6.22-.33.24-.49.2-.59s-.46-.17-.93-.16zm-19.9 5.58a10.9 10.9 0 00-3.88 2.35c-.14.16-.25.29-.22.39s.2.22 1.12.4a15.79 15.79 0 004.79-.4 8.62 8.62 0 01-1.81-2.74z" fill="#fff"/><path d="M250.14 104.22c.29-1.49 5.94-1.84 6.05-3.37s-3.58-1.51-3.58-3.39 12.89-5.27 10.12-12.37c-1.25-3.21-11.3 1.07-22-.08s-21.4-5.11-19.73-8.58a1.21 1.21 0 01.14-.2 30.88 30.88 0 01-9.64-7.48q-3.16.56-6.35 1.16a56 56 0 010 15.33 42.78 42.78 0 01-8.15 19.51c2.71 1.86 10.84-2 11.92-.18 1.65 2.71-10.17 3.73-10.13 5.59.09 4.37 15.64.23 15.51 2.76s-17.42 3.32-21.23 1.55c-.55 1.37-1.21 2.94-2 4.74-4.07 9.57-10.23 24-9.84 39.18.38 14.51 10 21.49 18.41 27.64a69.67 69.67 0 017.55 6c3.17-1.66 6.27-13.41 8.47-12.07 1.54.94-4.89 14.25-2.9 15.75 1.39 1.05 8.1-5.73 9.19-4.06s-7.46 6.56-6.91 11.59c.47 4.27 27.1 14.51 26 17.14-1.52 3.79-23.48-11-25.43-9.65s7.2 16.14 4.84 18.87c-1.9 2.2-6.72-9.69-8.53-14.41-.83 28.47-6.12 81.77-6.72 87.74 2.43 1.67 17.58 11.57 32 9 7.05-1.27 12.89-5.34 17.38-12.11a37.26 37.26 0 013.84-4.86c0-9.68 0-80.75-3.42-86-4.15-6.42-27.73-6.11-27.86-8.76-.07-1.36 7.1-3.9 14.1-4.56 6.66-.64 13.16.59 13.1-.46-.13-2-6.47-2.73-12.82-2.1-7.13.7-14.55 2.86-14.9 1.61s6.95-5.1 14-6.55 12.15-1.13 12.64-2.64c.59-1.79-6.48-1.31-13.64.21-7.41 1.58-14.38 5.86-15.19 4.33-.68-1.29 6.46-5.49 13.22-8.64 3.68-1.72 8.33-3 7.84-4.24s-3.1-.52-8.3 1.51c-7.45 2.91-14.91 8.78-15.95 8-2.43-1.76 15.45-16.34 10.51-21.19-1.46-1.44-6.49-5.52-10.24-5.23-7.54.58-14.11 9.12-15.24 6.76-.91-1.9 10.24-7.44 9.37-10.35-1.14-3.77-16.17-5.56-16.84-6.56-1.71-2.54 7-1.4 13.62.46 5.55 1.54 11.35 4.54 17.91 8l.43-.89c3.38 1.64 6.65 3.25 9.73 4.85a124 124 0 0015.7-48.17c.95-8.84-6.34-8.64-6.05-10.13zm-12.61-10.35c-1 1.9-4.58 3.67-8 5-2.22 3.08-6.36 5.37-6.92 5.67l-.38.2-.39-.2a17.84 17.84 0 01-3.52-2.39 27.8 27.8 0 01-5 .65 5.7 5.7 0 01-1.16-.1 3 3 0 01-2.28-1.29 1.72 1.72 0 01-.17-.61 2.16 2.16 0 01.55-1.44c1.06-1.36 3.43-2.49 4.89-3a5.5 5.5 0 01.07-1.47 3.88 3.88 0 011.83-2.89c2.09-1.22 4.11.29 5.14 1.31 1.22-1.51 3.59-4 6.48-2.64a4 4 0 011.41 1.07 18.38 18.38 0 015.25-1 3.79 3.79 0 011.7.35 1.67 1.67 0 01.49.37 2 2 0 01.01 2.41z" fill="#fff"/><path d="M71.17 164.18a2.19 2.19 0 01-.36-1.05c0-3.29 9.84 6.49 12.4 3.06 1.9-2.54-18.82-22-17.17-23.88s22.22 21 25.35 18.44c6.06-5-17.48-28.45-15.27-30.75s15.15 16 19.33 19.83c4.8 4.36 9.09 5 8.55-.31s-17.44-28.81-15-30.8c3.69-3 17.64 25.93 21.86 26.16 6.73.38 33.73-19.55 35-23.24 1.08-3.17-9.48-3.36-9-5.29.9-3.79 12.3 2.78 15.15 1s3.28-13 5.91-12.75-.88 10 1.86 10 20.49-8.62 22.57-11.57-4.3-10.64-2.55-12.72 6.26 9.12 9 8.71c1.33-.2 2.84-3.79 3.42-7.31s.23-7 1.84-6.87c1.09.05 1.57 3.45 1.06 6.85s-1.92 6.51-.84 6.93c2.29.9 6-7.15 7.29-14.5 1.05-5.92.54-12 2.37-12.1-.09-.88-.18-1.52-.23-1.87-22.27 4.34-44.48 10.59-62 17.72-14 5.69-36.31 17.48-56.93 30-23.8 14.49-34.13 23.22-33.82 25.44.48 3.93 10.65 13.43 20.21 20.87z" fill="#fff"/><path d="M19.89 177.81a1.47 1.47 0 00.12.5c.06.12.25.51 1.06.66a4.63 4.63 0 00.55.06 18.83 18.83 0 01.82-1.74c2.63-4.91 8.52-10.85 17.48-17.64-7.78 1.52-16.92 11.8-20.03 18.16zm3.29 5.25a2.2 2.2 0 00.49.15 4.81 4.81 0 001.64 0c.21-.5.46-1 .76-1.59 2.69-5 8.8-11.14 18.13-18.13-1.78.11-5.84 1.29-13 8a32.56 32.56 0 00-8.02 11.57zm4.22 4.44a5.47 5.47 0 002.52-.28 13.55 13.55 0 01.65-1.34c2.6-4.87 8.4-10.73 17.22-17.44a23.46 23.46 0 00-10.65 5.91c-5.87 5.36-8.8 10.65-9.74 13.15z" fill="#078ccd"/><path d="M373.85 120c-2.57 0-4.9-3-6.77-5.39a14.43 14.43 0 00-1.9-2.18 9.83 9.83 0 00-1.72-1c1.38 2.82 1.5 4.55.4 5.38a2.46 2.46 0 01-1.5.48c-1.77 0-4.19-1.69-7.22-5l-.39-.44.32-.48A76.31 76.31 0 00361.76 99l.3-.78.74.39a60.8 60.8 0 017.72 4.69c2.94 2.13 6.73 9.55 6.38 13.66a3.09 3.09 0 01-1.63 2.75 3.21 3.21 0 01-1.42.33z" fill="#00628f"/><path d="M362.46 99.27a60.19 60.19 0 017.62 4.64c3.47 2.51 8.42 13.4 4.87 15.13a2.59 2.59 0 01-1.1.25c-3.24 0-6.57-6.22-8.22-7.42a16 16 0 00-3.81-1.81c1.63 2.81 2.67 5.43 1.59 6.24a1.72 1.72 0 01-1.05.33c-1.88 0-4.56-2.45-6.66-4.78a77.24 77.24 0 006.76-12.58m-.8-2.1l-.6 1.57a76 76 0 01-6.61 12.26l-.65 1 .79.86c3.21 3.55 5.76 5.27 7.77 5.27a3.21 3.21 0 001.95-.64c1.23-.92 1.24-2.46.71-4.15.4.41 1 1.12 1.46 1.77 2 2.53 4.44 5.68 7.37 5.68a3.89 3.89 0 001.76-.41 3.77 3.77 0 002-3.36c.39-4.43-3.56-12.07-6.69-14.33a61.36 61.36 0 00-7.8-4.75l-1.49-.77z" fill="#091b30"/><path d="M340.29 267.67c-1.86-.72-5.8-1-8.14 1.43s-3.91 5.34-4.27 5.11.7-3.67 2.61-6.22a11.31 11.31 0 013.49-2.77 8.24 8.24 0 00-5.26.2c-5.82 1.74-8.32 5.38-15.62 7.73 18.57 7.47 31 9.89 36.08 7a10.06 10.06 0 002.37-1.89c-1.43-4.19-5.22-8.21-11.26-10.59z" fill="#fff"/><path d="M201.51 84.16c-1.29 7.35-5 15.4-7.29 14.5-1.08-.42.34-3.52.84-6.93s0-6.8-1.06-6.85c-1.61-.09-1.26 3.36-1.84 6.87s-2.09 7.11-3.42 7.31c-2.71.41-7.22-10.79-9-8.71s4.63 9.77 2.55 12.72-19.84 11.57-22.57 11.57.77-9.74-1.86-10-3.07 11-5.91 12.75-14.25-4.82-15.15-1c-.46 1.93 10.1 2.12 9 5.29-1.25 3.69-28.25 23.62-35 23.24-4.22-.23-18.17-29.16-21.86-26.16-2.45 2 14.46 25.46 15 30.8s-3.75 4.67-8.55.31C91.27 146 78.33 127.71 76.12 130s21.33 25.73 15.27 30.75c-3.13 2.59-23.71-20.3-25.35-18.44s19.07 21.34 17.17 23.88c-2.56 3.43-12.4-6.35-12.4-3.06a2.19 2.19 0 00.36 1.05c7.2 5.6 14.06 10 16.2 10h.09c2.52-.17 18.65-13.17 32.88-24.63 14.76-11.89 30-24.18 35.37-26.7 2.44-1.15 5.58-2.74 8.9-4.42 14.37-7.26 24.46-12.14 28.22-11.42 4.35-3.79 9.57-12.75 10.76-22a59.35 59.35 0 00.29-13c-1.83.13-1.32 6.23-2.37 12.15zm130.91 167.9c-3.77 1.48-5.84 4.22-8.25 7.42a37.53 37.53 0 01-9.51 9.58 18.47 18.47 0 01-5.48 2.48l2.33 1 1.59.64c7.3-2.35 9.8-6 15.62-7.73a8.24 8.24 0 015.26-.2 11.31 11.31 0 00-3.49 2.77c-1.91 2.55-3 6-2.61 6.22s1.95-2.69 4.27-5.11 6.28-2.15 8.14-1.43c6 2.38 9.83 6.4 11.26 10.55a8.14 8.14 0 002.15-5.64 13.06 13.06 0 00-.46-3.29c-4.03-9.81-15.94-15.32-20.82-17.26z" fill="#078ccd"/><path d="M353.24 269.29c-1.53-5.88-6.85-13.44-14.93-18.38a18.19 18.19 0 00-5.89 1.15c4.88 1.94 16.79 7.45 20.82 17.23z" fill="#00628f"/><path d="M235.3 79.35l-.91-.17zm-1.75-.35l-.87-.19zm3.58.62l-1-.14zM241 80l-1-.08zm17.06-1.89q-1.57.52-3.27.93 1.7-.41 3.27-.93zM239 79.85l-1-.12zm4.07.26h-1.08zm-12.78-1.88l-.78-.23zm13.8 1.89h1.32a44.73 44.73 0 005.83-.43 44.73 44.73 0 01-5.83.43zm-21.23-4.71l.57.28-.57-.28zm1.8.83L224 76zm7.23 2.4c-.29-.06-.56-.14-.83-.21.27.07.54.15.83.21zM226 76.78l-.68-.28zm1.33.51l-.72-.26zM290 82.93c1.73.69 6.44-3.77 7.28-2.15.46.88-3.58 3.45-2.57 4.57 1.51 1.69 15.49 2 21.86 2.3s5.94-6.73 7.47-6.27c1.34.4-.34 7.56.41 8 1.61.84 7-3.94 8.25-2.94s-6.54 4.63-3.42 6.77c3 2 6.18 3.62 13.56 3.08 3.28-.24 5.82-4.85 6.94-4.23.82.46-2.26 5.09-.51 5.1S353 93.27 354 93.6c.61.22-1.31 3.74.85 3.66 1.73-.06 3.14-2.6 3.84-2.41s-.57 3.08 1.25 3a3.19 3.19 0 001.72-.88 2 2 0 000-.33c-.78-2.37-29.53-21.75-35.76-24-3-1.09-20.74-5.2-42.35-7.32 1.14 1.21 3 5.7 3.65 9.07.57 2.85.35 7.55 2.8 8.54zm-61.23-5.15l-.74-.25z" fill="#078ccd"/><path d="M314.35 179.87c-1.34-3.42-21.71-2-21.71-4.8s18.15-3.76 17.81-6.46c-.3-2.42-20 2-20.58 0s17.89-6.29 16.68-8.84-18.28 6.32-19.47 4.48 12.52-10.31 10.38-11.81c-2.7-1.91-13 10.28-15 8.6s7-10.87 3-14.92c-1.4-1.39-6.72-4.24-9.68-5.58s-6.72-2.94-10.54 0c-2.52 1.93-6.26 8.87-8.17 8.16s-.14-4.92 2.39-9a94 94 0 008.62-17.18c2.34-6.87 5.51-17.38 3.92-20-.46-.77-2.82.83-5.3 1.47-3 .78-6.17.63-6.49-.74s2.69-1.37 5.71-2.5 6.26-3.34 5.93-4.61-2.59.24-4.77.74c-2 .46-3.92.87-4.32-.21s2.28-2.12 5.39-3.58c4.25-2 6.27-4.89 8.67-9.62 1.65-3.25 2.51-13.12 5.46-14.2a29.44 29.44 0 00-.6-4.18l-3.23-.28c-.43.68-10.58 16.64-33 16.78H245c-10.68 0-18.49-2.56-23.88-5.41a1.21 1.21 0 00-.14.2c-1.65 3.47 9 7.44 19.72 8.58s20.78-3.13 22 .08c2.77 7.1-10.12 10.48-10.12 12.37s3.68 1.86 3.58 3.39-5.76 1.88-6.05 3.37 7 1.29 6.05 10.18a124 124 0 01-15.7 48.17 134.31 134.31 0 0111.78 6.72c7.68 0 16.1 1 20 2.81 1.46-2 6.12-8.25 7.7-7.53 1.89.85-3.23 6.46-2 7.79 1.06 1.16 9.62.77 9.66 2.51s-8.81.53-9.11 2c-.37 1.87 1.91 3.82 5 6.14 3.87 2.88 13.14 6.41 12.68 8s-6.53-.59-10.92-2.91a44.63 44.63 0 01-10.35-8.28c1.43 18.66 5.07 74.67 5.65 83.64 2.66 1.61 21.28 12.29 33.3 4.27a36.36 36.36 0 009.14-9.24c2.34-3.11 4.48-5.94 8.18-7.62-1.61-6.82-15.55-67.72-16.82-70.95zm-100.09-66.95c.13-2.53-15.42 1.61-15.51-2.76 0-1.86 11.78-2.88 10.13-5.59-1.08-1.78-9.21 2-11.92.18a24.26 24.26 0 01-2.79 3.11c.73 1.14.18 3.26-1.14 6.61 3.81 1.77 21.1.86 21.23-1.55zm6.22 116.7c2.36-2.73-6.8-17.57-4.84-18.87s23.91 13.44 25.43 9.65c1.05-2.63-25.58-12.87-26-17.14-.55-5 7.9-10.06 6.91-11.59s-7.8 5.11-9.19 4.06c-2-1.5 4.44-14.81 2.9-15.75-2.2-1.34-5.3 10.41-8.47 12.07a14.49 14.49 0 014.28 6.87c.62 2.6.73 8.52.5 16.29 1.76 4.72 6.58 16.61 8.48 14.41z" fill="#078ccd"/><path d="M271.8 134.07l-.48-.24.07-.54c.49-3.57 4.38-31.67 8.69-40.87a70.3 70.3 0 001.71-9.06 74.68 74.68 0 00.47-14.07c-2.95 1.08-3.81 10.95-5.46 14.2-2.4 4.73-4.42 7.61-8.67 9.62-3.11 1.46-5.79 2.52-5.39 3.58s2.33.67 4.32.21c2.18-.5 4.43-2.06 4.77-.74s-2.82 3.44-5.93 4.61-6 1.27-5.71 2.5 3.5 1.52 6.49.74c2.48-.64 4.84-2.24 5.3-1.47 1.59 2.63-1.58 13.14-3.92 20a94 94 0 01-8.62 17.18c-2.53 4.05-4.31 8.25-2.39 9s5.65-6.23 8.17-8.16c3.82-2.94 7.58-1.34 10.54 0s8.28 4.19 9.68 5.58c4.07 4-5 13.23-3 14.92s12.28-10.51 15-8.6c2.14 1.5-11.57 10-10.38 11.81s18.26-7 19.47-4.48-17.23 6.79-16.68 8.84 20.28-2.42 20.58 0c.34 2.7-17.81 3.62-17.81 6.46s20.37 1.38 21.71 4.8c1.27 3.23 15.21 64.13 16.8 71.09a18.65 18.65 0 016.45-1.52c-3.2-16.21-22.35-88-26.18-92.7-4.08-5.09-39.24-22.52-39.6-22.69z" fill="#00628f"/><path d="M361.61 97a3.19 3.19 0 01-1.72.88c-1.82.08-.58-2.82-1.25-3s-2.11 2.35-3.84 2.41c-2.16.08-.24-3.44-.85-3.66-.95-.33-2.8 3.52-4.68 3.51s1.33-4.64.51-5.1c-1.12-.62-3.66 4-6.94 4.23-7.38.54-10.61-1.07-13.56-3.08-3.12-2.14 4.72-5.69 3.42-6.77s-6.64 3.78-8.25 2.94c-.75-.39.93-7.55-.41-8-1.53-.46-1.12 6.62-7.47 6.27s-20.35-.61-21.86-2.3c-1-1.12 3-3.69 2.57-4.57-.84-1.62-5.55 2.84-7.28 2.15-2.45-1-2.23-5.69-2.82-8.58-.7-3.37-2.51-7.86-3.65-9.07h-.31c.91 4.31.93 11.22.06 18.29-.26 2.07-.59 4.08-1 6 4.63-2.54 20.91-.6 36.38 1.67 1.5.22 2.64.39 3.27.46 2.17.27 7.34 4.39 15.59 11.17 5.6 4.59 13.24 10.87 14.87 10.87 2.16-2.02 8.77-13.72 9.22-16.72zm-76.38 91.19c4.39 2.32 10.49 4.44 10.92 2.91s-8.81-5.17-12.68-8c-3.1-2.32-5.38-4.27-5-6.14.3-1.51 9.15-.34 9.11-2s-8.6-1.35-9.66-2.51c-1.21-1.33 3.91-6.94 2-7.79-1.58-.72-6.24 5.51-7.7 7.53 1.18.54 1.94 1.15 2.11 1.81.08.3.27 2.49.54 6a44.63 44.63 0 0010.36 8.19z" fill="#00628f"/><path d="M277.53 286.09zm.2.01zm-.44-.03h.24-.24zm-.77-.07zm.74.07h-.52zm-78.46-135.9c.67 1 15.7 2.79 16.84 6.56.87 2.91-10.28 8.45-9.37 10.35 1.13 2.36 7.7-6.18 15.24-6.76 3.75-.29 8.78 3.79 10.24 5.23 4.94 4.85-12.94 19.43-10.51 21.19 1 .76 8.5-5.11 15.95-8 5.2-2 7.81-2.78 8.3-1.51s-4.16 2.52-7.84 4.24c-6.76 3.15-13.9 7.35-13.22 8.64.81 1.53 7.78-2.75 15.19-4.33 7.16-1.52 14.23-2 13.64-.21-.49 1.51-5.65 1.2-12.64 2.64s-14.33 5.37-14 6.55 7.77-.91 14.9-1.61c6.35-.63 12.69.08 12.82 2.1.06 1.05-6.44-.18-13.1.46-7 .66-14.17 3.2-14.1 4.56.13 2.65 23.71 2.34 27.86 8.76 3.38 5.21 3.43 76.28 3.42 86a31.15 31.15 0 0116.54-9.6c-3.09-34.55-9.84-100.19-13.64-106-1.93-2.94-5.38-5.84-9.53-8.6h-.35v-.23c-6.52-4.3-14.66-8.25-21.33-11.49l.23-.46c-6.56-3.44-12.36-6.44-17.91-8-6.66-1.88-15.34-3.02-13.63-.48z" fill="#078ccd"/><path d="M363.14 96.61c-.09-3.43-31.94-23.66-36.75-25.42-4.35-1.6-24.28-5.91-47.07-7.78l.19-.31-2-.49a10.34 10.34 0 01-2.84-1.29 4.84 4.84 0 01-2.45-4.16c0-1.22 1.33-3 2.84-5.12.94-1.28 2-2.74 3-4.4a4 4 0 00.8-.55c1.56-1.4 2.55-4.28 2.66-7.59a28 28 0 000-12.92C277.84 9.69 264.93 0 246.1 0a62.34 62.34 0 00-8.69.64c-12.59 1.81-27.53 9-27.17 33.15.15 10.48 3.27 15.46 5.55 19.1 1.47 2.35 2.45 3.91 2.26 6.14-.26 3.25-4.58 6.45-6.22 7.4l-1.45.85.1.12c-24.7 4.36-49.93 11.2-69.4 19.13-14 5.71-36.46 17.54-57.14 30.14-13.18 8-35.19 22.2-34.53 26.93a7.69 7.69 0 001.12 2.65c-11.54 7.45-26 18-30.69 26.81-1.42 2.66-1.81 4.59-1.18 5.9a2.78 2.78 0 002.13 1.49h.36a4 4 0 00.11 2.71 2.74 2.74 0 002.13 1.49 5.69 5.69 0 001 .09h.37a4.13 4.13 0 00.11 2.73A2.75 2.75 0 0027 189a4.9 4.9 0 001 .1 6.3 6.3 0 001.27-.13 4.18 4.18 0 00.07 2.85 2.82 2.82 0 002.13 1.49 5.84 5.84 0 00.93.08c2.94 0 6.19-2.5 10.62-6.19 4.6-3.83 10.21-8 17.12-12.78-2 3.5-4.89 8.65-5.35 10.9-.56 2.81.19 5 2 5.8 2.52 1.12 6-.56 8.78-4.2l1.73-2.31c2.7-3.61 6.7-8.95 10.45-13.74 4.38 2.93 8 4.86 9.68 4.86h.13c2.79-.18 14.6-9.55 33.72-24.95 14.69-11.83 29.88-24.07 35.07-26.51 2.45-1.16 5.6-2.75 8.94-4.44 9-4.56 25.8-13 27.6-11.19.72.74-1.37 5.66-3.22 10-4.12 9.69-10.36 24.33-10 39.81.39 15.25 10.73 22.77 19 28.81 5.44 4 10.14 7.38 11.25 12 2.92 12.17-6.2 103-6.3 104l.75.08-.44.6s.37.28.93.65l-.86 3.32.35.3c10.74 9.26 59.25 26.25 73.24 27.77a31.86 31.86 0 003.41.19c13.07 0 15.87-9.08 15.9-9.18l.73-12.61a3.78 3.78 0 00-1.84-3.44c-1.39-9.09-9.93-19.22-18.57-24.84h-.52.52l-.81-.51c-.68-7.56-9-99.55-13.92-107a31 31 0 00-8.07-7.75c10.75.24 18 2.41 18.39 3.46.42 1.92 4.22 59.55 6.17 89.76v.38l.32.2c.11.07.52.33 1.18.71l-.71 2.71.36.3C289 275.91 328.62 289.78 340 291a25.45 25.45 0 002.8.16c10.77 0 13.08-7.5 13.11-7.59l.59-10.31a3.24 3.24 0 00-1.53-2.92c-1.21-7.66-8.56-16.19-15.82-20.67-2.56-13.35-22.23-88.49-26.6-93.89-4.07-5.05-35.17-20.62-39.63-22.84 1.77-13 5-31.46 8-38.89l.22.07c.13-.46.26-1 .38-1.44a5.07 5.07 0 011.22-1.68c3.91-3 27.86.52 35.72 1.68 1.52.22 2.67.39 3.31.46 1.9.23 8.76 5.86 14.81 10.83 11.68 9.6 15.3 12.19 16.77 10.9a18.51 18.51 0 002.35-3 77.24 77.24 0 006.76-12.58 8.3 8.3 0 00.68-2.68zm-10.73 17.09c-1.63 0-9.27-6.28-14.87-10.87-8.25-6.78-13.42-10.9-15.59-11.17-.63-.07-1.77-.24-3.27-.46-15.47-2.27-31.75-4.21-36.38-1.67.39-1.91.72-3.92 1-6 .87-7.07.85-14-.06-18.29h.31c21.61 2.12 39.37 6.23 42.35 7.32 6.23 2.29 35 21.67 35.76 24a2 2 0 010 .33c-.45 3-7.06 14.73-9.18 16.73zm-45.85 158.37c1.41.61 2.86 1.22 4.31 1.82 11.54 4.73 24.09 8.91 32.48 8.91a13.35 13.35 0 006.57-1.38 10 10 0 005-6.64l-.48 8.48a9.17 9.17 0 01-4.15 4.69c-2.17 1.24-5.38 2.11-10.13 1.59-7.24-.79-26.92-7.09-41.9-13.37-7.43-3.12-13.71-6.23-16.73-8.66l.37-1.41c4.71 2.54 15.1 7.32 24.66 5.97zm46.68-2.78a13.06 13.06 0 01.46 3.29 8.14 8.14 0 01-2.15 5.64 10.06 10.06 0 01-2.37 1.89c-5 2.93-17.51.51-36.08-7l-1.59-.64-2.33-1a18.47 18.47 0 005.48-2.48 37.53 37.53 0 009.51-9.58c2.41-3.2 4.48-5.94 8.25-7.42a18.19 18.19 0 015.89-1.15c8.08 5.01 13.4 12.57 14.93 18.45zm-15.64-19.85a18.65 18.65 0 00-6.45 1.52c-3.7 1.68-5.84 4.51-8.18 7.62a36.36 36.36 0 01-9.14 9.24c-12 8-30.64-2.66-33.3-4.27-.58-9-4.22-65-5.65-83.64-.27-3.51-.46-5.7-.54-6-.17-.66-.93-1.27-2.11-1.81-3.86-1.77-12.28-2.83-20-2.81a134.31 134.31 0 00-11.78-6.72c-3.08-1.6-6.35-3.21-9.73-4.85l-.43.89-.23.46c6.67 3.24 14.81 7.19 21.33 11.49v.23h.35c4.15 2.76 7.6 5.66 9.53 8.6 3.8 5.78 10.55 71.42 13.64 106a31.15 31.15 0 00-16.54 9.6 37.26 37.26 0 00-3.84 4.86c-4.49 6.77-10.33 10.84-17.38 12.11-14.38 2.58-29.53-7.32-32-9 .6-6 5.89-59.27 6.72-87.74.23-7.77.12-13.69-.5-16.29a14.49 14.49 0 00-4.28-6.87 69.67 69.67 0 00-7.55-6c-8.45-6.15-18-13.13-18.41-27.64-.39-15.15 5.77-29.61 9.84-39.18.77-1.8 1.43-3.37 2-4.74 1.32-3.35 1.87-5.47 1.14-6.61a24.26 24.26 0 002.79-3.11 42.78 42.78 0 008.12-19.51 56 56 0 000-15.33q3.18-.6 6.35-1.16a30.88 30.88 0 009.64 7.48c5.39 2.85 13.2 5.41 23.88 5.41h.42c22.42-.14 32.57-16.1 33-16.78l3.23.28a29.44 29.44 0 01.6 4.18 74.68 74.68 0 01-.47 14.07 70.3 70.3 0 01-1.71 9.06c-4.31 9.2-8.2 37.3-8.69 40.87l-.07.54.48.24c.36.17 35.52 17.6 39.62 22.67 3.95 4.68 23.1 76.43 26.3 92.64zm-42.09 77.18a11.57 11.57 0 01-6.26 6.42c-2.64 1.22-6.32 2-11.43 1.41-7.94-.86-28.07-7.13-45.38-13.95-11.75-4.64-22.21-9.53-26.67-13.16l.5-1.92a65.12 65.12 0 008.28 4.34 45.67 45.67 0 0017.73 4.1 29.32 29.32 0 005.18-.45l.54-.11c2.55 1.09 5.15 2.16 7.78 3.2 13 5.13 26.57 9.37 35.9 9.37a17.1 17.1 0 007.42-1.38l.6-.31a11.94 11.94 0 006.36-10.65v-.12a2.08 2.08 0 01.14.86zm-.95-13.11a10.14 10.14 0 01-4.09 8.33 12.42 12.42 0 01-1.53 1c-5.95 3.47-20.23.92-41.4-7.33-1.61-.63-3.25-1.28-4.94-2l-2.13-.88c6.12-1.86 11.28-5.89 15.35-12 7.58-11.42 18-13.58 19.77-13.87 11.96 7.32 19.03 19.31 18.97 26.75zM30.74 191.13c-.39-.8 0-2.46 1.15-4.55 2.61-4.87 8.63-10.85 17.9-17.77a.75.75 0 10-.9-1.2l-1.1.83C39 175.15 33.17 181 30.57 185.88a13.55 13.55 0 00-.65 1.34 5.47 5.47 0 01-2.52.28h-.1c-.81-.15-1-.54-1.06-.66-.38-.8 0-2.46 1.15-4.55 2.66-5 8.84-11.06 18.38-18.13a.75.75 0 00-.9-1.2l-.67.5c-9.33 7-15.44 13.09-18.13 18.13-.3.56-.55 1.09-.76 1.59a4.81 4.81 0 01-1.64 0 2.2 2.2 0 01-.49-.15 1 1 0 01-.57-.52c-.38-.8 0-2.45 1.15-4.54 2.63-4.91 8.72-10.94 18.11-17.93a.75.75 0 10-.9-1.2l-1 .78c-9 6.79-14.85 12.73-17.48 17.64a18.83 18.83 0 00-.82 1.74 4.63 4.63 0 01-.55-.06c-.81-.15-1-.54-1.06-.66a1.47 1.47 0 01-.12-.5 8.22 8.22 0 011.27-4.05c4.57-8.53 18.8-18.91 30.2-26.26.65.91 1.44 1.89 2.35 2.93 5.46 6.21 15.07 14.26 22.8 19.59-3.73 4.79-7.69 10.09-10.34 13.65L64.44 186c-2.52 3.36-5.42 4.42-7 3.73-1.16-.52-1.59-2-1.17-4.13.34-1.68 2.47-5.89 5.83-11.56a1.21 1.21 0 00-1.74-1.61C53 177.5 47 182 42.1 186c-4.31 3.58-7.58 6.09-10.09 5.81a1.66 1.66 0 01-.22 0c-.79-.17-.99-.55-1.05-.68zm54-73.18c20.62-12.56 43-24.35 56.93-30 17.52-7.13 39.73-13.38 62-17.72 0 .35.14 1 .23 1.87a59.35 59.35 0 01-.29 13c-1.19 9.26-6.41 18.22-10.76 22-3.76-.72-13.85 4.16-28.22 11.42-3.32 1.68-6.46 3.27-8.9 4.42-5.35 2.52-20.61 14.81-35.37 26.7-14.25 11.42-30.36 24.42-32.9 24.59h-.09c-2.14 0-9-4.45-16.2-10-9.56-7.44-19.73-16.94-20.27-20.79-.31-2.27 10.02-11 33.82-25.44zm185.77-79.49c0-3.72 1.18-6.54 2.52-7.6a13.06 13.06 0 00-1.81 6.94c-.05 3.61.93 6.79 2.44 8.61-1.58-.57-3.15-3.67-3.15-7.95zm9.52.42c0 3.11-.86 5.9-2.19 7.1a1.85 1.85 0 01-1.41.54c-1.8-.2-3.77-3.82-3.71-8.7 0-3.07.91-5.79 2.23-6.93a1.84 1.84 0 011.2-.51h.2c1.77.25 3.65 3.72 3.65 8.5zm-62.31 14.28l-.68-1.1c-.35-.56-.72-1.15-1.09-1.79a27.42 27.42 0 01-3.09-7.37c-.18-.71-.35-1.45-.49-2.24s-.27-1.66-.37-2.52c-.15-1.34-.24-2.79-.26-4.38a50 50 0 01.22-5.58 37.05 37.05 0 011.19-6.47c.28-1 .6-1.94.95-2.84a26.74 26.74 0 011.18-2.59c.43-.82.89-1.6 1.38-2.35a23.65 23.65 0 011.58-2.11 24.81 24.81 0 016.85-5.66 31 31 0 013.48-1.67q1.29-.51 2.64-.93c.78-.25 1.58-.47 2.39-.67s1.76-.39 2.66-.55l1.36-.21a59.17 59.17 0 018.48-.63c10.43 0 19.6 3.06 25.94 9.65a32 32 0 018 15.75 28.6 28.6 0 01.7 6.87c-.76-2.35-2-4.09-3.5-4.67a3.12 3.12 0 00-.71-.19h-2.38c-2.89 0-5.16 4.2-5.16 9.56 0 4.25 1.43 7.76 3.46 9a3.12 3.12 0 001.7.53H276a2.14 2.14 0 00-.13.19c-1.84 2.77-3.7 5-4.62 6.84a5 5 0 00-.58 2.09 5.74 5.74 0 001 3.34 8.49 8.49 0 003.33 2.8h.06c.38.18.74.33 1 .45a9.78 9.78 0 001 .33 25 25 0 01-2.39 3.07q-.54.61-1.2 1.29a38.78 38.78 0 01-12.37 8.49c-1 .43-2 .83-3.12 1.19s-2.14.66-3.27.93-2.32.49-3.55.67a44.73 44.73 0 01-5.83.43h-4.32l-1-.08-.94-.08-1-.12-.9-.11-1-.14-.87-.13-.91-.17-.84-.16-.87-.19-.79-.19c-.29-.06-.56-.14-.83-.21l-.77-.2-.78-.23-.74-.22-.74-.25-.7-.24-.72-.26-.65-.25-.68-.28-.62-.26L224 76l-.6-.27-.57-.28a32.08 32.08 0 01-9.65-7l-.07-.07-.1-.11-.1-.12-.1-.11c-.17-.2-.25-.31-.25-.31s5-2.92 6.55-6.84a6.15 6.15 0 00.41-1.73 7.42 7.42 0 00-.31-2.87 7.83 7.83 0 00-.4-1 10.94 10.94 0 00-.51-1c-.16-.43-.36-.78-.58-1.13z" fill="#091b30"/><path d="M218.84 55.24a7.83 7.83 0 01.4 1 7.42 7.42 0 01.31 2.87 6.15 6.15 0 01-.41 1.73c-1.52 3.92-6.55 6.84-6.55 6.84s.08.11.25.31l.1.11.1.12.1.11.07.07a32.08 32.08 0 009.65 7l.57.28.6.27.63.28.62.26.68.28.65.25.72.26.7.24.74.25.74.22.78.23.77.2c.27.07.54.15.83.21l.79.19.87.19.84.16.91.17.87.13 1 .14.9.11 1 .12.94.08 1 .08h4.4a44.73 44.73 0 005.83-.43c1.23-.18 2.41-.4 3.55-.67s2.22-.58 3.27-.93 2.12-.76 3.12-1.19a11.71 11.71 0 001.74-8.36c-.46-3-1.32-5-2.88-5.88-2.16-1.26-4.72-1.79-11.48-1.91C239 60.6 233.41 59.81 233 57a34.67 34.67 0 01-8.62-2.2c-4.47-2.1-11.23-7.54-11-22.63.13-9.61 3.77-14.56 12.55-17.58A31.91 31.91 0 01236.19 13a41.88 41.88 0 0120 5.19c1.89-5.11-1.77-10-8.3-13.07-5.77-2.72-16.53-1.57-16.68-1.55q-1.35.42-2.64.93a31 31 0 00-3.48 1.67 24.81 24.81 0 00-6.85 5.66 23.65 23.65 0 00-1.58 2.11c-.49.75-.95 1.53-1.38 2.35a26.74 26.74 0 00-1.18 2.59c-.35.9-.67 1.85-.95 2.84a37.05 37.05 0 00-1.15 6.46 50 50 0 00-.22 5.58c0 1.59.11 3 .26 4.38.1.89.22 1.73.37 2.52s.31 1.53.49 2.24a27.42 27.42 0 003.1 7.37c.37.64.74 1.23 1.09 1.79l.68 1.1c.22.35.42.7.61 1.05a10.94 10.94 0 01.46 1.03z" fill="#fff"/><path d="M276 48l-.1.19a2.14 2.14 0 01.1-.19z" fill="#078ccd"/><path d="M247.89 5.11c6.53 3.08 10.19 8 8.3 13.07a24.69 24.69 0 017.42 6.13c5.68 7.42 4.5 25.08-2.68 30.45-3.05 2.27-9.27 3.15-15.83 3.15A82.52 82.52 0 01233 57c.38 2.8 5.92 3.59 15.53 3.76 6.76.12 9.32.65 11.48 1.91 1.56.9 2.42 2.87 2.88 5.88a11.71 11.71 0 01-1.74 8.36 38.78 38.78 0 0012.37-8.49q.66-.68 1.2-1.29a25 25 0 002.39-3.07 9.78 9.78 0 01-1-.33c-.3-.12-.66-.27-1-.45h-.06c-1.1 1.11-6.6-.94-6.6-7.11 0-2.38 2-4.95 4.05-8.66-2-1.27-3.46-4.78-3.46-9 0-5.36 2.27-9.56 5.16-9.56h2.38a3.12 3.12 0 01.71.19v-.39c-.15-9.4-5.29-17.62-5.29-17.62l.07.06C265.7 4.56 256.53 1.5 246.1 1.5a59.17 59.17 0 00-8.48.63l-1.36.21c-.9.16-1.78.34-2.66.55s-1.61.42-2.39.67c.15-.02 10.91-1.17 16.68 1.55z" fill="#078ccd"/><path d="M277.26 28.71v.39c1.49.58 2.74 2.32 3.5 4.67a28.6 28.6 0 00-.7-6.87 32 32 0 00-8-15.75l-.07-.06s5.12 8.22 5.27 17.62zM275 63.26a8.49 8.49 0 01-3.34-2.78 5.74 5.74 0 01-1-3.34 5 5 0 01.58-2.09c.92-1.88 2.78-4.07 4.62-6.84L276 48h-1.83a3.12 3.12 0 01-1.7-.53c-2.08 3.71-4.05 6.28-4.05 8.66 0 6.19 5.5 8.24 6.58 7.13z" fill="#00628f"/><path d="M271.22 37.8a13.06 13.06 0 011.78-6.94c-1.34 1.06-2.52 3.88-2.52 7.6 0 4.28 1.57 7.38 3.15 7.95-1.48-1.82-2.46-5-2.41-8.61z" fill="#fff"/><path d="M276.35 30.39h-.2a1.84 1.84 0 00-1.2.51c-1.32 1.14-2.2 3.86-2.23 6.93-.06 4.88 1.91 8.5 3.71 8.7a1.85 1.85 0 001.41-.54c1.33-1.2 2.19-4 2.19-7.1-.03-4.79-1.91-8.26-3.68-8.5z" fill="#078ccd"/><path d="M237 91.1a3.79 3.79 0 00-1.7-.35 18.38 18.38 0 00-5.25 1 4 4 0 00-1.41-1.07c-2.89-1.32-5.26 1.13-6.48 2.64-1-1-3.05-2.53-5.14-1.31a3.88 3.88 0 00-1.83 2.82 5.5 5.5 0 00-.07 1.47c-1.46.54-3.83 1.67-4.89 3a2.16 2.16 0 00-.55 1.44 1.72 1.72 0 00.17.61 3 3 0 002.28 1.29 5.7 5.7 0 001.16.1 27.8 27.8 0 005-.65 17.84 17.84 0 003.52 2.39l.39.2.38-.2c.56-.3 4.7-2.59 6.92-5.67 3.39-1.31 7-3.08 8-5a2 2 0 000-2.4 1.67 1.67 0 00-.5-.31zm-24.56 10c-.92-.18-1.11-.31-1.12-.4s.08-.23.22-.39a10.9 10.9 0 013.88-2.35 8.62 8.62 0 001.81 2.74 15.79 15.79 0 01-4.76.38zm23.61-8c-.61 1-2.66 2.28-5.68 3.6a6.38 6.38 0 00.43-3.47 18.16 18.16 0 014.52-.88c.47 0 .86 0 .93.16s.05.27-.17.6z" fill="#de4298"/></svg>