<svg xmlns="http://www.w3.org/2000/svg" viewBox="0 0 240.06 222.44"><defs><clipPath id="a"><path d="M94.14 129s-13.87-17 12.42-55.92c30.89-45.77 105.91-63 105.91-63l27.59 38.22s-45.1 75.66-98.45 86.34C98.82 143.18 94.14 129 94.14 129z" fill="none"/></clipPath></defs><g clip-path="url(#a)"><path d="M230.12 140.75c-3.58 18.47-57.19 17.38-62.8 28.38s14.55 34.31 5 38.83-41.52-10.67-50.73-8.63S98.51 225 89.76 222.21s-.9-35.41-7.28-41.9-37.62 16.35-42 9.45 7.92-18.5 3.78-24.72C40 158.64 4 162.57.28 147.3s30.78-29.3 33.26-46.17S11.43 63.78 17 51.27s29.09 1.81 34.62-3.64S51.39 4.5 62.79.62c15.83-5.38 28.69 25.71 44.64 28s53.08-24.63 66-15.32-5.25 27.78 2.92 37 46 3.08 50.13 15.11-19.15 30.07-17.88 43.41 24.4 16.87 21.52 31.93z" fill="#de4298"/><path d="M213.94 137.3c-3 11.34-47.91 1.52-56.8 17.17-4 7.08 15.61 28.27 4.08 40.88-5.14 5.62-28.1-10.89-37.57-4.68s-27.85 25.56-32.75 7.92 7.93-50.85-4.06-44.65-41.07 28-38.47 16.68 14-22.53-4.87-20.78-29.93-1.55-27.5-14.67c1.51-8.31 42.86-33.16 45.95-43.44 3.59-11.91-38.36-23.68-24.81-32 6.05-3.73 28.32 12.68 26.58-6.36s-2.21-40.8 15.33-32.93S102.78 48.86 115.28 49c11.32.09 42.18-30.77 51.61-23.89 12.1 8.84-9.28 46.25-.36 47.36s37.9-8.18 44 4.13c4.61 9.36-15.41 19.55-15.49 29.52-.1 7.63 22.96 16.12 18.9 31.18z" fill="#dd7a43"/><path d="M141.58 135.94c9.1-3.28 52.32 5 49.18-8.3-4.45-18.84-28.41-18.16-44.32-34.22-8.78-8.87 16.44-41.43 4.62-45.8s-21.5 25.79-33.34 24.43S83 44.39 74.24 53.45c-8.07 8.3 16.25 32 6.7 48.06-8.75 14.67-38.31 23.09-38.42 34.25C42.41 148.44 88 134.06 98 144c5.47 5.4 7.48 39 18.89 38 17.27-1.59 9.6-40.64 24.69-46.06z" fill="#afcb36"/></g></svg>