<svg xmlns="http://www.w3.org/2000/svg" width="74.431" height="51.867"><defs><linearGradient id="a" x1="-.024" y1="1.041" x2=".811" y2=".179" gradientUnits="objectBoundingBox"><stop offset="0" stop-color="#a9d6ef"/><stop offset=".994" stop-color="#fff"/></linearGradient></defs><g data-name="Component 5 – 3"><path data-name="Path 1533" d="M105.366 134.54h5.8v-33.007h-5.8V92.1H128.8a37.815 37.815 0 0110.373 1.015c6.239 1.886 10.375 6.963 10.375 14.581a15.2 15.2 0 01-8.415 14.217v.145a7.183 7.183 0 013.192 3.12l3.989 7.692c.654 1.231 1.669 1.668 3.337 1.668h1.814v9.43H144.9c-4.207 0-5.877-1.015-7.327-3.846l-6.312-12.113c-.869-1.668-1.812-2.249-4.5-2.249h-2.612v8.778h5.441v9.43h-24.224zm24.664-18.934c4.063 0 6.6-2.031 6.6-6.747 0-2.394-.58-4.643-2.829-5.729a11.462 11.462 0 00-5.006-.871h-4.643v13.347z" transform="translate(-93.298 -92.103)" fill="url(#a)"/><path data-name="Path 1534" d="M57.424 8.591c8.587-1.847 14.531-1.917 15.4.223 1.532 3.758-13.169 12.911-32.835 20.444S3.139 39.85 1.607 36.092c-1.031-2.53 5.3-7.506 15.541-12.786" fill="none" stroke="#008ccd" stroke-linecap="round" stroke-miterlimit="10" stroke-width="3" stroke-dasharray="2 6"/></g></svg>