<svg data-name="Layer 1" xmlns="http://www.w3.org/2000/svg" viewBox="0 0 1920 1885.94"><g data-name="Group 49"><g data-name="Group 24"><path data-name="Path 23" d="M170.62 7c-.77-8.44 12.35-9.66 13.13-1.2S171.4 15.43 170.62 7z" fill="#8453bc"/></g><g data-name="Group 25"><path data-name="Path 24" d="M56.63 87.36c-2.7-11.12 14.58-15.36 17.29-4.2s-14.58 15.35-17.29 4.2z" fill="#8453bc"/></g><g data-name="Group 26"><path data-name="Path 25" d="M.33 240c-2.16-5.91 7-9.28 9.18-3.36S2.49 245.91.33 240z" fill="#8453bc"/></g><g data-name="Group 27"><path data-name="Path 26" d="M236.85 155.66c-3-8.08 9.61-12.7 12.57-4.6s-9.6 12.7-12.57 4.6z" fill="#8453bc"/></g><g data-name="Group 28"><path data-name="Path 27" d="M73.68 376.74c-2.66-5.61 6-9.76 8.71-4.14s-6.04 9.75-8.71 4.14z" fill="#8453bc"/></g><g data-name="Group 29"><path data-name="Path 28" d="M133.59 475.17c-3.16-5.42 5.27-10.34 8.43-4.91s-5.27 10.35-8.43 4.91z" fill="#8453bc"/></g><g data-name="Group 30"><path data-name="Path 29" d="M438.38 391.16c-5.78-8.25 7-17.25 12.82-9s-7.02 17.26-12.82 9z" fill="#8453bc"/></g><g data-name="Group 31"><path data-name="Path 30" d="M197.91 544.17c-2.75-3.92 3.34-8.2 6.09-4.27s-3.33 8.2-6.09 4.27z" fill="#8453bc"/></g><g data-name="Group 32"><path data-name="Path 31" d="M541.76 455.53c-3.57-4.17 2.91-9.72 6.48-5.55s-2.91 9.72-6.48 5.55z" fill="#8453bc"/></g><g data-name="Group 33"><path data-name="Path 32" d="M474.88 604.75c-4.87-5.69 4-13.27 8.85-7.57s-3.96 13.27-8.85 7.57z" fill="#8453bc"/></g><g data-name="Group 34"><path data-name="Path 33" d="M473.88 682.31c-6-5.48 2.48-14.85 8.51-9.36s-2.48 14.85-8.51 9.36z" fill="#8453bc"/></g><g data-name="Group 35"><path data-name="Path 34" d="M620.93 707.87c-7.27-4.56-.19-15.88 7.1-11.31s.19 15.88-7.1 11.31z" fill="#8453bc"/></g><g data-name="Group 36"><path data-name="Path 35" d="M701.1 905.25c-6.35-2.66-2.23-12.53 4.13-9.86s2.23 12.53-4.13 9.86z" fill="#8453bc"/></g><g data-name="Group 37"><path data-name="Path 36" d="M914.55 712.83c-9.47-2.57-5.5-17.29 4-14.72s5.45 17.29-4 14.72z" fill="#8453bc"/></g><g data-name="Group 38"><path data-name="Path 37" d="M1011.62 823.68c-8.43-1.32-6.4-14.43 2-13.12s6.46 14.44-2 13.12z" fill="#8453bc"/></g><g data-name="Group 39"><path data-name="Path 38" d="M1150.53 688.76c-10.52-.62-9.57-17 1-16.34s9.52 16.96-1 16.34z" fill="#8453bc"/></g><g data-name="Group 40"><path data-name="Path 39" d="M1177.11 986c-8.53-.5-7.77-13.77.78-13.26s7.77 13.71-.78 13.26z" fill="#8453bc"/></g><g data-name="Group 41"><path data-name="Path 40" d="M1278.76 989.48c-9.49-.56-8.64-15.3.86-14.74s8.64 15.26-.86 14.74z" fill="#8453bc"/></g><g data-name="Group 42"><path data-name="Path 41" d="M1406.87 1016.32c-7.62.23-8-11.62-.35-11.84s7.99 11.62.35 11.84z" fill="#8453bc"/></g><g data-name="Group 43"><path data-name="Path 42" d="M1668.21 967.44c-11.19 1.33-13.27-16.06-2.06-17.39s13.27 16.05 2.06 17.39z" fill="#8453bc"/></g><g data-name="Group 44"><path data-name="Path 43" d="M1706.06 994.23c-10.9 1.3-12.94-15.65-2-17s12.94 15.7 2 17z" fill="#8453bc"/></g><g data-name="Group 45"><path data-name="Path 44" d="M1715 743.76c-11.24 2.45-15.06-15-3.81-17.46s15.03 15.01 3.81 17.46z" fill="#8453bc"/></g><g data-name="Group 46"><path data-name="Path 45" d="M1849.27 992.36c-5 1.7-7.62-6-2.65-7.72s7.62 6.01 2.65 7.72z" fill="#8453bc"/></g><g data-name="Group 47"><path data-name="Path 46" d="M1901.66 908.5c-5.7 2-8.76-6.9-3.05-8.86s8.76 6.9 3.05 8.86z" fill="#8453bc"/></g><g data-name="Group 48"><path data-name="Path 47" d="M1916.62 672.59c-5.25 2.79-9.6-5.37-4.34-8.16s9.6 5.36 4.34 8.16z" fill="#8453bc"/></g></g><g data-name="Group 86" opacity=".7"><g data-name="Group 50"><path data-name="Path 48" d="M1849.41 1238.39c4.07-5.75 13.07.54 9 6.3s-13.08-.54-9-6.3z" fill="#7fb7ff"/></g><g data-name="Group 51"><path data-name="Path 49" d="M1716.69 1277.88c5.29-4.83 12.85 3.34 7.55 8.17s-12.85-3.34-7.55-8.17z" fill="#7fb7ff"/></g><g data-name="Group 52"><path data-name="Path 50" d="M1693.46 1322.75c5.3-3.69 11.07 4.5 5.76 8.2s-11.07-4.5-5.76-8.2z" fill="#7fb7ff"/></g><g data-name="Group 53"><path data-name="Path 51" d="M1595.62 1241.44c6.46-3.22 11.5 6.77 5 10s-11.47-6.78-5-10z" fill="#7fb7ff"/></g><g data-name="Group 54"><path data-name="Path 52" d="M1508.6 1203c9.09-4.53 16.18 9.52 7.07 14s-16.18-9.44-7.07-14z" fill="#7fb7ff"/></g><g data-name="Group 55"><path data-name="Path 53" d="M1546.55 1443c4.92-1.56 7.36 6 2.44 7.6s-7.37-6.02-2.44-7.6z" fill="#7fb7ff"/></g><g data-name="Group 56"><path data-name="Path 54" d="M1424.71 1372.86c7.61-1.15 9.42 10.6 1.8 11.75s-9.42-10.61-1.8-11.75z" fill="#7fb7ff"/></g><g data-name="Group 57"><path data-name="Path 55" d="M1403.33 1460.16c9.72-1.48 12 13.55 2.3 15s-12.04-13.53-2.3-15z" fill="#7fb7ff"/></g><g data-name="Group 58"><path data-name="Path 56" d="M1344.86 1436.77c6.53 0 6.52 10.1 0 10.1s-6.54-10.1 0-10.1z" fill="#7fb7ff"/></g><g data-name="Group 59"><path data-name="Path 57" d="M1292.91 1263.42c10.85 0 10.84 16.78 0 16.76s-10.86-16.78 0-16.76z" fill="#7fb7ff"/></g><g data-name="Group 60"><path data-name="Path 58" d="M1252 1287.56c4.76 0 4.76 7.36 0 7.35s-4.73-7.36 0-7.35z" fill="#7fb7ff"/></g><g data-name="Group 61"><path data-name="Path 59" d="M1150.07 1377.46c5.64.75 4.49 9.47-1.16 8.72s-4.49-9.46 1.16-8.72z" fill="#7fb7ff"/></g><g data-name="Group 62"><path data-name="Path 60" d="M1047.23 1384.07c5.2 1.27 3.21 9.31-2 8s-3.23-9.28 2-8z" fill="#7fb7ff"/></g><g data-name="Group 63"><path data-name="Path 61" d="M970.12 1310c5.94 1.46 3.67 10.64-2.28 9.18s-3.67-10.6 2.28-9.18z" fill="#7fb7ff"/></g><g data-name="Group 64"><path data-name="Path 62" d="M865.29 1427.17c10.45 3.74 4.63 19.89-5.84 16.14s-4.62-19.88 5.84-16.14z" fill="#7fb7ff"/></g><g data-name="Group 65"><path data-name="Path 63" d="M860.85 1244.84c6.59 2.35 2.92 12.54-3.68 10.18s-2.92-12.54 3.68-10.18z" fill="#7fb7ff"/></g><g data-name="Group 66"><path data-name="Path 64" d="M828.1 1149.58c7.25 2.59 3.21 13.8-4.05 11.2s-3.2-13.78 4.05-11.2z" fill="#7fb7ff"/></g><g data-name="Group 67"><path data-name="Path 65" d="M742.48 1223.6c7.35 3.5 1.88 14.87-5.48 11.36s-1.88-14.88 5.48-11.36z" fill="#7fb7ff"/></g><g data-name="Group 68"><path data-name="Path 66" d="M740.19 1128.92c5.65 2.69 1.45 11.42-4.2 8.72s-1.45-11.42 4.2-8.72z" fill="#7fb7ff"/></g><g data-name="Group 69"><path data-name="Path 67" d="M601 1276.36c8 3.8 2 16.11-5.94 12.31s-2.06-16.11 5.94-12.31z" fill="#7fb7ff"/></g><g data-name="Group 70"><path data-name="Path 68" d="M605.44 1178.73c8.69 5.35.34 18.78-8.36 13.42s-.34-18.78 8.36-13.42z" fill="#7fb7ff"/></g><g data-name="Group 71"><path data-name="Path 69" d="M634.58 1039.14c7.37 4.54.29 15.93-7.09 11.39s-.29-15.94 7.09-11.39z" fill="#7fb7ff"/></g><g data-name="Group 72"><path data-name="Path 70" d="M460.19 1151.5c7.44 5.92-1.8 17.43-9.25 11.5s1.8-17.43 9.25-11.5z" fill="#7fb7ff"/></g><g data-name="Group 73"><path data-name="Path 71" d="M420.59 1100.18c6.54 5.2-1.58 15.31-8.13 10.1s1.59-15.28 8.13-10.1z" fill="#7fb7ff"/></g><g data-name="Group 74"><path data-name="Path 72" d="M426.37 1020.6c4.84 3.85-1.17 11.33-6 7.47s1.16-11.33 6-7.47z" fill="#7fb7ff"/></g><g data-name="Group 75"><path data-name="Path 73" d="M322.57 978.34c3.18 3.38-2.1 8.3-5.29 4.91s2.1-8.25 5.29-4.91z" fill="#7fb7ff"/></g><g data-name="Group 76"><path data-name="Path 74" d="M378.79 837.33c3.07 4.76-4.36 9.51-7.43 4.74s4.36-9.51 7.43-4.74z" fill="#7fb7ff"/></g><g data-name="Group 77"><path data-name="Path 75" d="M313.79 822.94c4.4 6.81-6.24 13.61-10.64 6.79s6.23-13.61 10.64-6.79z" fill="#7fb7ff"/></g><g data-name="Group 78"><path data-name="Path 76" d="M231.36 801.05c3.92 8.37-9.15 14.43-13.07 6.05s9.15-14.43 13.07-6.05z" fill="#7fb7ff"/></g><g data-name="Group 79"><path data-name="Path 77" d="M265.63 729.23c1.86 4.7-5.47 7.57-7.33 2.87s5.47-7.57 7.33-2.87z" fill="#7fb7ff"/></g><g data-name="Group 80"><path data-name="Path 78" d="M67.82 711.3c3.58 9.07-10.59 14.63-14.18 5.54s10.58-14.63 14.18-5.54z" fill="#7fb7ff"/></g><g data-name="Group 81"><path data-name="Path 79" d="M110.29 656.42c2 6.8-8.61 9.94-10.63 3.13s8.6-9.95 10.63-3.13z" fill="#7fb7ff"/></g><g data-name="Group 82"><path data-name="Path 80" d="M163 569.23c1.94 6.52-8.26 9.54-10.2 3s8.26-9.55 10.2-3z" fill="#7fb7ff"/></g><g data-name="Group 83"><path data-name="Path 81" d="M267.48 499.28c1.57 10.07-14.17 12.51-15.74 2.43s14.17-12.52 15.74-2.43z" fill="#7fb7ff"/></g><g data-name="Group 84"><path data-name="Path 82" d="M264.73 456.14c-.54 7.69-12.56 6.88-12-.83s12.53-6.88 12 .83z" fill="#7fb7ff"/></g><g data-name="Group 85"><path data-name="Path 83" d="M8.11 389c-.36 5.19-8.46 4.64-8.1-.55s8.46-4.67 8.1.55z" fill="#7fb7ff"/></g></g><g data-name="Group 127"><g data-name="Group 117"><g data-name="Group 89"><path data-name="Path 1504" d="M1914.8 1619.65c8-1.11 6.27-13.54-1.74-12.42s-6.27 13.54 1.74 12.42z" fill="#8453bc"/></g><g data-name="Group 90"><path data-name="Path 1505" d="M1891.54 1658.94c10.24-1 8.72-16.91-1.54-15.91s-8.72 16.9 1.54 15.91z" fill="#8453bc"/></g><g data-name="Group 91"><path data-name="Path 1506" d="M1821.61 1778.09c9.5-.21 9.17-15-.34-14.76s-9.18 14.98.34 14.76z" fill="#8453bc"/></g><g data-name="Group 92"><path data-name="Path 1507" d="M1742.94 1614.68c7.74.14 8-11.9.22-12s-7.98 11.85-.22 12z" fill="#8453bc"/></g><g data-name="Group 93"><path data-name="Path 1508" d="M1495.39 1813.13c10.44.77 11.65-15.44 1.2-16.21s-11.65 15.44-1.2 16.21z" fill="#8453bc"/></g><g data-name="Group 94"><path data-name="Path 1509" d="M1357.1 1885.92c5.73.42 6.4-8.48.65-8.91s-6.4 8.49-.65 8.91z" fill="#8453bc"/></g><g data-name="Group 95"><path data-name="Path 1510" d="M1327.46 1648.51c7.78 1.16 9.6-10.94 1.8-12.1s-9.6 10.94-1.8 12.1z" fill="#8453bc"/></g><g data-name="Group 96"><path data-name="Path 1511" d="M1139.67 1844.94c5.5 1.38 7.66-7.16 2.15-8.54s-7.65 7.16-2.15 8.54z" fill="#8453bc"/></g><g data-name="Group 97"><path data-name="Path 1512" d="M985.19 1808.5c5.33 2.12 8.64-6.16 3.3-8.28s-8.64 6.16-3.3 8.28z" fill="#8453bc"/></g><g data-name="Group 98"><path data-name="Path 1513" d="M1042 1625.65c8.55 3.4 13.85-9.88 5.28-13.29s-13.87 9.88-5.28 13.29z" fill="#8453bc"/></g><g data-name="Group 99"><path data-name="Path 1514" d="M884.55 1763c4.06 1.62 6.58-4.7 2.51-6.31s-6.58 4.72-2.51 6.31z" fill="#8453bc"/></g><g data-name="Group 100"><path data-name="Path 1515" d="M952.64 1568.7c4.24 2.67 8.4-3.92 4.15-6.59s-8.4 3.89-4.15 6.59z" fill="#8453bc"/></g><g data-name="Group 101"><path data-name="Path 1516" d="M774.71 1630.49c5 4.7 12.29-3 7.29-7.75s-12.29 3.06-7.29 7.75z" fill="#8453bc"/></g><g data-name="Group 102"><path data-name="Path 1517" d="M672.58 1634.14c5.43 5.1 13.36-3.32 7.93-8.43s-13.36 3.29-7.93 8.43z" fill="#8453bc"/></g><g data-name="Group 103"><path data-name="Path 1518" d="M622 1538.17c4.8 6.21 14.46-1.23 9.66-7.45s-14.48 1.22-9.66 7.45z" fill="#8453bc"/></g><g data-name="Group 104"><path data-name="Path 1519" d="M385 1500.15c3.05 5.5 11.6.76 8.54-4.75s-11.66-.75-8.54 4.75z" fill="#8453bc"/></g><g data-name="Group 105"><path data-name="Path 1520" d="M570.05 1343c3.3 8.34 16.27 3.22 13-5.14s-16.31-3.25-13 5.14z" fill="#8453bc"/></g><g data-name="Group 106"><path data-name="Path 1521" d="M407.45 1286.61c2.88 7.26 14.16 2.8 11.28-4.46s-14.16-2.8-11.28 4.46z" fill="#8453bc"/></g><g data-name="Group 107"><path data-name="Path 1522" d="M559.54 1169.86c2.57 9.27 17 5.29 14.41-4s-16.95-5.29-14.41 4z" fill="#8453bc"/></g><g data-name="Group 108"><path data-name="Path 1523" d="M100.36 1200.66c2.09 7.53 13.79 4.3 11.7-3.24s-13.79-4.3-11.7 3.24z" fill="#8453bc"/></g><g data-name="Group 109"><path data-name="Path 1524" d="M85.51 1125.51c1.61 8.53 14.87 6 13.26-2.5s-14.88-6.01-13.26 2.5z" fill="#8453bc"/></g><g data-name="Group 110"><path data-name="Path 1525" d="M46.68 1054c1.3 6.84 11.94 4.85 10.65-2s-11.94-4.9-10.65 2z" fill="#8453bc"/></g><g data-name="Group 111"><path data-name="Path 1526" d="M70.24 946.72c1.26 10.22 17.14 8.28 15.88-2s-17.12-8.24-15.88 2z" fill="#8453bc"/></g><g data-name="Group 112"><path data-name="Path 1527" d="M38.21 916.65c1.23 10 16.71 8.07 15.48-1.9s-16.69-8.07-15.48 1.9z" fill="#8453bc"/></g><g data-name="Group 113"><path data-name="Path 1528" d="M373.79 915.31c1.28 10.43 17.49 8.45 16.2-2s-17.49-8.45-16.2 2z" fill="#8453bc"/></g><g data-name="Group 114"><path data-name="Path 1529" d="M0 794.47c.46 4.78 7.88 4.08 7.42-.71s-7.86-4.07-7.42.71z" fill="#8453bc"/></g><g data-name="Group 115"><path data-name="Path 1530" d="M52.08 709.55c-.2 5.51 8.36 5.82 8.56.31s-8.37-5.86-8.56-.31z" fill="#8453bc"/></g><g data-name="Group 116"><path data-name="Path 1531" d="M195.72 660.41c-1.77 5.14 6.21 7.89 8 2.75s-6.24-7.89-8-2.75z" fill="#8453bc"/></g></g></g></svg>