<svg xmlns="http://www.w3.org/2000/svg" viewBox="0 0 101.29 62.49"><path d="M57.14 42.47a246.78 246.78 0 01-22.7 11.64l.65.32.37.15c.54.23 1.08.43 1.64.62l.4.13c.67.21 1.35.4 2 .55l.31.06c.55.11 1.11.21 1.67.29l1 .12 1 .08c.42 0 .84 0 1.27.06h.52a30.53 30.53 0 004.93-.4l.41-.06c.53-.1 1.07-.2 1.6-.33l.4-.1c.87-.21 1.73-.46 2.59-.74.31-.11.62-.2.93-.32s.68-.26 1-.4.87-.36 1.3-.56l.8-.37c.71-.34 1.42-.71 2.11-1.11.52-.3 1-.61 1.51-.93l.25-.16a35.73 35.73 0 00-2.69-10.49c-1.06.66-2.16 1.31-3.27 1.95z" fill="#93288d"/><path d="M19.72 58.23c10.46-3.39 23.48-9.44 36.67-17.06C79.72 27.7 95 14.49 98.87 7.27L69.49 26.1A108.47 108.47 0 0153 37.56c-9.77 5.64-20.42 10.2-25.71 10.2-1.45 0-2.49-.34-3-1.1l-.29-.49a21.15 21.15 0 01-2.38-9.62c-3.64 2.73-7 5.41-9.8 8C4.14 51.47.39 57.05 1.78 59.46s8.1 1.96 17.94-1.23z" fill="#9d7db9"/><path d="M98.87 7.27c1-1.83 1.22-3.28.66-4.24s-2.14-1.54-4.48-1.54c-3.17 0-7.8.93-13.46 2.77a144.75 144.75 0 00-14.06 5.47A21.29 21.29 0 0175 16.81v.08l.23.37c.79 2-1.64 5.21-5.77 8.84z" fill="#734a9e"/><path d="M76.61 30c-5 3.58-10.52 7.16-16.16 10.53A35.73 35.73 0 0163.14 51c7.78-5.11 12.79-12.92 13.47-21z" fill="#712878"/><path d="M71.76 45.22c.09-.1.17-.21.26-.32a28.78 28.78 0 005.58-11.49l.18-.88c0-.18.07-.35.1-.53a24.34 24.34 0 00.31-3.15C93.19 18 103.67 7.2 100.83 2.28c-2.34-4.06-12-1.94-19.71.55a151.84 151.84 0 00-15.29 6c-8-3.76-18.67-3.21-28.13 2.24s-15.38 14.61-16 23.56c-4.07 3-7.73 6-10.87 8.79C4.81 48.84-1.86 56.16.48 60.21c1 1.65 3.11 2.28 5.85 2.28 4 0 9.28-1.35 13.85-2.83 3.85-1.25 8-2.86 12.46-4.76l.49.26h.07a26.5 26.5 0 0012.2 2.86 33.68 33.68 0 0016.73-4.62c.55-.31 1.07-.64 1.59-1l.42-.28c.43-.28.84-.57 1.25-.87l.29-.21c.47-.35.93-.71 1.38-1.09l.43-.36c.31-.27.62-.54.92-.82l.48-.45c.38-.35.74-.71 1.09-1.09.21-.21.4-.43.6-.64l.52-.59c.23-.25.45-.51.66-.78zm-70 14.24c-1.39-2.41 2.36-8 10-14.92 2.85-2.58 6.16-5.26 9.8-8A21.15 21.15 0 0024 46.17l.27.49c.52.76 1.56 1.1 3 1.1 5.29 0 15.94-4.56 25.71-10.2A108.47 108.47 0 0069.49 26.1c4.13-3.63 6.56-6.87 5.77-8.84l-.26-.37v-.08a21.29 21.29 0 00-7.45-7.08 144.75 144.75 0 0114.04-5.47c5.66-1.84 10.29-2.77 13.46-2.77 2.34 0 3.89.51 4.48 1.54s.31 2.41-.66 4.24C95 14.49 79.72 27.7 56.39 41.17 43.2 48.79 30.18 54.84 19.72 58.23c-9.84 3.19-16.55 3.65-17.94 1.23zM39 12.11c13-7.26 28.23-4.88 34.78 5.54l.07.1.1.15c.68 1.7-4.85 7.81-16.47 15.22-1.62 1-3.34 2.07-5.19 3.14-14.78 8.53-25.53 11.32-26.71 9.58l-.05-.07-.08-.15c-5.86-11-.12-25.62 13.05-33.24zM63.15 51l-.25.16a30.37 30.37 0 01-3.62 2.04l-.8.37c-.43.2-.86.38-1.3.56s-.68.28-1 .4-.62.21-.93.32c-.86.28-1.72.53-2.59.74l-.4.1c-.53.13-1.07.23-1.6.33l-.41.06a30.53 30.53 0 01-4.93.4h-.52c-.43 0-.85 0-1.27-.06l-1-.08-1-.12c-.56-.08-1.12-.18-1.67-.29l-.31-.06c-.69-.15-1.37-.34-2-.55l-.4-.13c-.56-.19-1.1-.39-1.64-.62l-.37-.15-.65-.32a246.78 246.78 0 0022.7-11.64c1.11-.64 2.21-1.29 3.31-1.95 5.64-3.37 11.13-7 16.16-10.53-.73 8.1-5.74 15.91-13.51 21.02z" fill="#091b30"/><path d="M25.4 45.62l.08.15.05.07c1.18 1.74 11.93-1.05 26.71-9.58 1.85-1.07 3.57-2.12 5.19-3.14C53.31 23.73 43.6 14.44 39 12.11l-.5.27C25.28 20 19.54 34.6 25.4 45.62z" fill="#93288d"/><path d="M57.43 33.12C69.05 25.71 74.58 19.6 73.9 17.9l-.1-.15-.07-.1C67.18 7.23 52 4.85 39 12.11c4.6 2.33 14.31 11.62 18.43 21.01z" fill="#712878"/></svg>