<svg xmlns="http://www.w3.org/2000/svg" width="382" height="122.297"><g data-name="Group 19" fill="#fff"><path data-name="Path 2" d="M0 65.329h8.753v-49.79H0V1.314h35.344c5.911 0 11.162.218 15.648 1.532 9.412 2.845 15.65 10.5 15.65 21.994 0 10.285-4.924 17.288-12.694 21.447v.218a10.837 10.837 0 014.815 4.706l6.017 11.6c.986 1.857 2.518 2.515 5.034 2.515h2.736v14.225H59.639c-6.347 0-8.865-1.532-11.053-5.8L39.064 55.48c-1.311-2.516-2.734-3.393-6.783-3.393h-3.937v13.241h8.208v14.225H0zm37.206-28.561c6.128 0 9.957-3.063 9.957-10.178 0-3.611-.875-7-4.267-8.642a17.3 17.3 0 00-7.551-1.313h-7v20.133z"/><path data-name="Path 3" d="M115.657 0c23.856 0 41.146 17.507 41.146 39.942 0 22.979-17.29 40.926-41.146 40.926S74.511 62.921 74.511 39.942C74.511 17.507 91.802 0 115.657 0zm0 63.9c11.489 0 20.9-10.285 20.9-23.963 0-13.134-9.412-22.983-20.9-22.983s-20.9 9.848-20.9 22.983c-.001 13.683 9.411 23.968 20.9 23.968z"/><path data-name="Path 4" d="M160.408 65.329h8.753v-49.79h-8.753V1.314h38.956c4.488 0 9.192.218 13.132 1.749 9.192 3.5 15.1 13.023 15.1 24.621 0 11.492-6.02 21.665-15.43 24.951a38.718 38.718 0 01-12.257 1.639h-11.16v11.055h8.756v14.225h-37.1zm36.658-26.371a12.852 12.852 0 006.894-1.643c2.845-1.861 4.159-5.361 4.159-9.63 0-4.158-1.313-7.551-3.831-9.3a11.914 11.914 0 00-6.895-1.749h-8.644V38.96z"/><path data-name="Path 5" d="M233.709 65.329h8.753v-49.79h-8.753V1.314h60.3v23.09h-16.421v-7.769H262.05v15.863h22.871v15.321H262.05v16.415h16.852v-7.769h16.416v23.09h-61.609z"/><path data-name="Path 6" d="M306.057 65.329h8.753v-49.79h-8.753V1.314h35.345c5.911 0 11.162.218 15.648 1.532 9.412 2.845 15.65 10.5 15.65 21.994 0 10.285-4.924 17.288-12.694 21.447v.218a10.837 10.837 0 014.815 4.706l6.018 11.6c.986 1.857 2.518 2.515 5.033 2.515h2.736v14.225h-12.912c-6.347 0-8.865-1.532-11.053-5.8l-9.521-18.271c-1.311-2.516-2.734-3.393-6.784-3.393h-3.94v13.241h8.208v14.225h-36.549zm37.206-28.561c6.129 0 9.958-3.063 9.958-10.178 0-3.611-.875-7-4.268-8.642a17.3 17.3 0 00-7.551-1.313h-7v20.133z"/></g><g data-name="Group 20" fill="#fff"><path data-name="Path 7" d="M12.435 98.699c5.843 0 8.782 3.037 8.782 3.037l-2.683 4.181a9.089 9.089 0 00-5.557-2.106c-4.788 0-6.736 3.063-6.736 6.451 0 4.341 3 6.928 6.545 6.928a7.815 7.815 0 004.63-1.66v-1.759h-3.224v-4.756h8.174v12.9h-4.661v-.637c0-.481.031-.957.031-.957h-.063a9.471 9.471 0 01-6 1.977c-5.844 0-11.209-4.372-11.209-11.843a11.56 11.56 0 0111.971-11.756z"/><path data-name="Path 8" d="M37.043 98.699a11.549 11.549 0 0111.942 11.656 11.943 11.943 0 01-23.885 0 11.55 11.55 0 0111.943-11.656zm0 18.49c3.415 0 6.162-2.939 6.162-6.834a6.174 6.174 0 10-12.326 0c0 3.896 2.751 6.834 6.164 6.834z"/><path data-name="Path 9" d="M63.628 98.699a11.549 11.549 0 0111.941 11.656 11.942 11.942 0 01-23.884 0 11.549 11.549 0 0111.943-11.656zm0 18.49c3.415 0 6.162-2.939 6.162-6.834a6.174 6.174 0 10-12.326 0c0 3.896 2.747 6.834 6.164 6.834z"/><path data-name="Path 10" d="M79.674 99.082h8.11c7.186 0 11.783 4.185 11.783 11.371s-4.6 11.46-11.783 11.46h-8.11zm7.887 18.041c3.863 0 6.227-2.3 6.227-6.669 0-4.346-2.46-6.581-6.227-6.581h-2.3v13.25z"/><path data-name="Path 11" d="M111.301 99.082h5.652l6.323 10.668a41.051 41.051 0 011.914 3.9h.065s-.256-2.462-.256-3.9V99.082h5.587v22.831h-5.619l-6.354-10.632a40.672 40.672 0 01-1.917-3.9h-.065s.256 2.458.256 3.9v10.632h-5.586z"/><path data-name="Path 12" d="M136.383 99.082h14.305v4.791h-8.717v4.15h6.961v4.791h-6.961v4.31h9.165v4.791h-14.753z"/><path data-name="Path 13" d="M156.098 99.082h5.587v22.831h-5.587z"/><path data-name="Path 14" d="M177.71 98.699c5.843 0 8.782 3.037 8.782 3.037l-2.683 4.181a9.087 9.087 0 00-5.556-2.106c-4.788 0-6.736 3.063-6.736 6.451 0 4.341 3 6.928 6.545 6.928a7.815 7.815 0 004.63-1.66v-1.759h-3.225v-4.756h8.174v12.9h-4.661v-.637c0-.481.031-.957.031-.957h-.063a9.47 9.47 0 01-6 1.977c-5.844 0-11.209-4.372-11.209-11.843a11.561 11.561 0 0111.971-11.756z"/><path data-name="Path 15" d="M192.935 99.082h5.587v9.136h8.3v-9.136h5.59v22.831h-5.59v-8.94h-8.3v8.94h-5.587z"/><path data-name="Path 16" d="M218.455 99.082h8.4c4.566 0 7.76 2.043 7.76 5.971a5.581 5.581 0 01-2.651 4.857v.062a5.121 5.121 0 013.577 5.143c0 4.977-4.152 6.8-8.686 6.8h-8.4zm8.462 8.847a1.932 1.932 0 002.012-2.106 1.859 1.859 0 00-2.108-1.95h-2.778v4.056zm.478 9.194a2.266 2.266 0 002.427-2.391 2.2 2.2 0 00-2.4-2.333h-3.384v4.724z"/><path data-name="Path 17" d="M250.373 98.699a11.549 11.549 0 0111.941 11.656 11.942 11.942 0 01-23.884 0 11.55 11.55 0 0111.943-11.656zm0 18.49c3.415 0 6.162-2.939 6.162-6.834a6.174 6.174 0 10-12.326 0c0 3.896 2.748 6.834 6.164 6.834z"/><path data-name="Path 18" d="M266.485 99.082h7.949a11.815 11.815 0 014.439.543c2.587.993 4.216 3.322 4.216 6.643a6.961 6.961 0 01-3.417 6.229v.062a13.248 13.248 0 01.861 1.371l4.439 7.983h-6.227l-4.056-7.694h-2.618v7.694h-5.586zm8.014 10.347a2.612 2.612 0 002.905-2.809c0-1.723-.637-2.747-3.448-2.747h-1.884v5.556z"/><path data-name="Path 19" d="M296.166 99.082h13.985v4.791h-8.4v4.791h6.961v4.791h-6.958v8.459h-5.588z"/><path data-name="Path 20" d="M314.109 99.082h5.59v14.435c0 2.4 1.563 3.673 3.958 3.673s3.961-1.278 3.961-3.673V99.082h5.584v14.435c0 5.142-3.769 8.78-9.515 8.78-5.812 0-9.581-3.638-9.581-8.78z"/><path data-name="Path 21" d="M338.295 99.082h5.653l6.322 10.668a41.047 41.047 0 011.914 3.9h.065s-.256-2.462-.256-3.9V99.082h5.588v22.831h-5.616l-6.353-10.632a40.656 40.656 0 01-1.917-3.9h-.065s.256 2.458.256 3.9v10.632h-5.591z"/><path data-name="Path 22" d="M362.107 99.082h8.11c7.186 0 11.783 4.185 11.783 11.371s-4.6 11.46-11.783 11.46h-8.11zm7.887 18.041c3.863 0 6.227-2.3 6.227-6.669 0-4.346-2.46-6.581-6.227-6.581h-2.3v13.25z"/></g></svg>